<mxfile host="Electron" agent="Mozilla/5.0 (Windows NT 10.0; Win64; x64) AppleWebKit/537.36 (KHTML, like Gecko) draw.io/28.1.2 Chrome/138.0.7204.243 Electron/37.4.0 Safari/537.36" version="28.1.2">
  <diagram name="Page-1" id="8X90j2agcKZzmAuZHYjz">
    <mxGraphModel dx="1213" dy="828" grid="1" gridSize="10" guides="1" tooltips="1" connect="1" arrows="1" fold="1" page="1" pageScale="1" pageWidth="850" pageHeight="1100" math="0" shadow="0">
      <root>
        <mxCell id="0" />
        <mxCell id="1" parent="0" />
        <mxCell id="WCmOqJApZtAGnSyVygM3-62" value="" style="rounded=0;orthogonalLoop=1;jettySize=auto;html=1;convertToSvg=0;edgeStyle=orthogonalEdgeStyle;jumpStyle=none;strokeColor=default;align=center;verticalAlign=middle;fontFamily=Helvetica;fontSize=11;fontColor=default;labelBackgroundColor=default;endArrow=block;sourcePerimeterSpacing=6;targetPerimeterSpacing=6;endFill=1;startArrow=block;startFill=1;" parent="1" source="WCmOqJApZtAGnSyVygM3-38" target="WCmOqJApZtAGnSyVygM3-40" edge="1">
          <mxGeometry x="0.3602" relative="1" as="geometry">
            <mxPoint x="240" y="1540" as="sourcePoint" />
            <mxPoint x="879.8600000000002" y="1415" as="targetPoint" />
            <Array as="points">
              <mxPoint x="510" y="1620" />
              <mxPoint x="510" y="1680" />
            </Array>
            <mxPoint as="offset" />
          </mxGeometry>
        </mxCell>
        <mxCell id="WCmOqJApZtAGnSyVygM3-323" value="sosa:is&lt;br&gt;HostedBy" style="edgeLabel;html=1;align=center;verticalAlign=middle;resizable=0;points=[];" parent="WCmOqJApZtAGnSyVygM3-62" vertex="1" connectable="0">
          <mxGeometry x="0.6403" y="-1" relative="1" as="geometry">
            <mxPoint x="10" y="1" as="offset" />
          </mxGeometry>
        </mxCell>
        <mxCell id="Pp_cTzMIZjNAPxuEeKP_-22" value="sosa:hosts" style="edgeLabel;html=1;align=center;verticalAlign=middle;resizable=0;points=[];" parent="WCmOqJApZtAGnSyVygM3-62" vertex="1" connectable="0">
          <mxGeometry x="-0.6185" relative="1" as="geometry">
            <mxPoint x="1" y="-2" as="offset" />
          </mxGeometry>
        </mxCell>
        <mxCell id="WCmOqJApZtAGnSyVygM3-61" value="mqtt:is&lt;br&gt;HostedBy" style="edgeStyle=orthogonalEdgeStyle;rounded=0;orthogonalLoop=1;jettySize=auto;html=1;startArrow=classic;startFill=1;strokeColor=default;align=center;verticalAlign=middle;fontFamily=Helvetica;fontSize=11;fontColor=default;labelBackgroundColor=default;endArrow=block;sourcePerimeterSpacing=6;targetPerimeterSpacing=6;endFill=1;" parent="1" source="WCmOqJApZtAGnSyVygM3-38" target="WCmOqJApZtAGnSyVygM3-46" edge="1">
          <mxGeometry x="0.4008" relative="1" as="geometry">
            <Array as="points">
              <mxPoint x="510" y="1590" />
              <mxPoint x="510" y="1555" />
            </Array>
            <mxPoint as="offset" />
          </mxGeometry>
        </mxCell>
        <mxCell id="WCmOqJApZtAGnSyVygM3-68" value="mqtt:hosts" style="edgeLabel;html=1;align=center;verticalAlign=middle;resizable=0;points=[];rounded=0;dashed=1;strokeColor=default;fontFamily=Helvetica;fontSize=11;fontColor=default;labelBackgroundColor=default;" parent="WCmOqJApZtAGnSyVygM3-61" vertex="1" connectable="0">
          <mxGeometry x="-0.3587" relative="1" as="geometry">
            <mxPoint x="27" y="-2" as="offset" />
          </mxGeometry>
        </mxCell>
        <mxCell id="WCmOqJApZtAGnSyVygM3-3" value="NetworkParticipant" style="rounded=0;arcSize=10;whiteSpace=wrap;html=1;align=center;fillColor=#008a00;fontColor=#ffffff;strokeColor=#005700;shape=ellipse;perimeter=ellipsePerimeter;" parent="1" vertex="1">
          <mxGeometry x="430" y="370" width="120" height="30" as="geometry" />
        </mxCell>
        <mxCell id="WCmOqJApZtAGnSyVygM3-13" value="" style="edgeStyle=orthogonalEdgeStyle;rounded=0;orthogonalLoop=1;jettySize=auto;html=1;strokeColor=default;align=center;verticalAlign=middle;fontFamily=Helvetica;fontSize=11;fontColor=default;labelBackgroundColor=default;endArrow=block;endFill=1;sourcePerimeterSpacing=6;targetPerimeterSpacing=6;curved=0;fillColor=default;startArrow=block;startFill=1;" parent="1" source="WCmOqJApZtAGnSyVygM3-4" target="WCmOqJApZtAGnSyVygM3-7" edge="1">
          <mxGeometry relative="1" as="geometry" />
        </mxCell>
        <mxCell id="Pp_cTzMIZjNAPxuEeKP_-15" value="owl:equivalentClass" style="edgeLabel;html=1;align=center;verticalAlign=middle;resizable=0;points=[];" parent="WCmOqJApZtAGnSyVygM3-13" vertex="1" connectable="0">
          <mxGeometry x="0.1452" relative="1" as="geometry">
            <mxPoint x="10" y="-2" as="offset" />
          </mxGeometry>
        </mxCell>
        <mxCell id="WCmOqJApZtAGnSyVygM3-24" value="mqtt:hasHostAddress" style="edgeStyle=orthogonalEdgeStyle;rounded=0;orthogonalLoop=1;jettySize=auto;html=1;strokeColor=default;align=center;verticalAlign=middle;fontFamily=Helvetica;fontSize=11;fontColor=default;labelBackgroundColor=default;endArrow=block;sourcePerimeterSpacing=6;targetPerimeterSpacing=6;endFill=1;" parent="1" source="WCmOqJApZtAGnSyVygM3-4" target="WCmOqJApZtAGnSyVygM3-15" edge="1">
          <mxGeometry x="0.5245" relative="1" as="geometry">
            <Array as="points">
              <mxPoint x="300" y="380" />
              <mxPoint x="245" y="380" />
            </Array>
            <mxPoint as="offset" />
          </mxGeometry>
        </mxCell>
        <mxCell id="WCmOqJApZtAGnSyVygM3-30" value="&lt;font&gt;mqtt:isAcceptedBy&lt;/font&gt;" style="edgeStyle=orthogonalEdgeStyle;rounded=0;orthogonalLoop=1;jettySize=auto;html=1;align=center;verticalAlign=middle;fontFamily=Helvetica;fontSize=11;fontColor=default;labelBackgroundColor=default;endArrow=block;sourcePerimeterSpacing=6;targetPerimeterSpacing=6;endFill=1;" parent="1" source="WCmOqJApZtAGnSyVygM3-4" target="WCmOqJApZtAGnSyVygM3-11" edge="1">
          <mxGeometry x="0.4598" relative="1" as="geometry">
            <Array as="points">
              <mxPoint x="320" y="210" />
              <mxPoint x="450" y="210" />
            </Array>
            <mxPoint as="offset" />
          </mxGeometry>
        </mxCell>
        <mxCell id="WCmOqJApZtAGnSyVygM3-33" style="edgeStyle=orthogonalEdgeStyle;rounded=0;orthogonalLoop=1;jettySize=auto;html=1;strokeColor=default;align=center;verticalAlign=middle;fontFamily=Helvetica;fontSize=11;fontColor=default;labelBackgroundColor=default;endArrow=block;sourcePerimeterSpacing=6;targetPerimeterSpacing=6;endFill=0;dashed=1;" parent="1" source="WCmOqJApZtAGnSyVygM3-4" target="WCmOqJApZtAGnSyVygM3-3" edge="1">
          <mxGeometry relative="1" as="geometry">
            <Array as="points">
              <mxPoint x="450" y="420" />
            </Array>
          </mxGeometry>
        </mxCell>
        <mxCell id="WCmOqJApZtAGnSyVygM3-146" style="edgeStyle=orthogonalEdgeStyle;rounded=0;orthogonalLoop=1;jettySize=auto;html=1;strokeColor=default;align=center;verticalAlign=middle;fontFamily=Helvetica;fontSize=11;fontColor=default;labelBackgroundColor=default;endArrow=block;sourcePerimeterSpacing=6;targetPerimeterSpacing=6;endFill=1;" parent="1" source="WCmOqJApZtAGnSyVygM3-4" target="WCmOqJApZtAGnSyVygM3-138" edge="1">
          <mxGeometry relative="1" as="geometry">
            <Array as="points">
              <mxPoint x="330" y="585" />
            </Array>
          </mxGeometry>
        </mxCell>
        <mxCell id="WCmOqJApZtAGnSyVygM3-149" value="&lt;div style=&quot;color: rgb(204, 204, 204); background-color: rgb(31, 31, 31); font-family: Consolas, &amp;quot;Courier New&amp;quot;, monospace; font-size: 14px; line-height: 19px; white-space-collapse: preserve;&quot;&gt;&lt;br&gt;&lt;/div&gt;" style="edgeLabel;html=1;align=center;verticalAlign=middle;resizable=0;points=[];rounded=0;dashed=1;strokeColor=default;fontFamily=Helvetica;fontSize=11;fontColor=default;labelBackgroundColor=default;" parent="WCmOqJApZtAGnSyVygM3-146" vertex="1" connectable="0">
          <mxGeometry x="0.2247" relative="1" as="geometry">
            <mxPoint as="offset" />
          </mxGeometry>
        </mxCell>
        <mxCell id="WCmOqJApZtAGnSyVygM3-150" value="mqtt:&lt;br&gt;forwards&lt;br&gt;Publish&lt;br&gt;Packet" style="edgeLabel;html=1;align=center;verticalAlign=middle;resizable=0;points=[];rounded=0;dashed=1;strokeColor=default;fontFamily=Helvetica;fontSize=11;fontColor=default;labelBackgroundColor=default;" parent="WCmOqJApZtAGnSyVygM3-146" vertex="1" connectable="0">
          <mxGeometry x="-0.0576" y="-2" relative="1" as="geometry">
            <mxPoint x="52" y="20" as="offset" />
          </mxGeometry>
        </mxCell>
        <mxCell id="WCmOqJApZtAGnSyVygM3-147" style="edgeStyle=orthogonalEdgeStyle;rounded=0;orthogonalLoop=1;jettySize=auto;html=1;strokeColor=default;align=center;verticalAlign=middle;fontFamily=Helvetica;fontSize=11;fontColor=default;labelBackgroundColor=default;endArrow=block;sourcePerimeterSpacing=6;targetPerimeterSpacing=6;endFill=1;" parent="1" source="WCmOqJApZtAGnSyVygM3-4" target="WCmOqJApZtAGnSyVygM3-140" edge="1">
          <mxGeometry relative="1" as="geometry">
            <Array as="points">
              <mxPoint x="310" y="745" />
            </Array>
          </mxGeometry>
        </mxCell>
        <mxCell id="WCmOqJApZtAGnSyVygM3-151" value="mqtt:&lt;br&gt;receives&lt;br&gt;Unsubscribe&lt;br&gt;Packet" style="edgeLabel;html=1;align=center;verticalAlign=middle;resizable=0;points=[];rounded=0;dashed=1;strokeColor=default;fontFamily=Helvetica;fontSize=11;fontColor=default;labelBackgroundColor=default;" parent="WCmOqJApZtAGnSyVygM3-147" vertex="1" connectable="0">
          <mxGeometry x="0.5862" y="1" relative="1" as="geometry">
            <mxPoint x="36" y="1" as="offset" />
          </mxGeometry>
        </mxCell>
        <mxCell id="WCmOqJApZtAGnSyVygM3-148" style="edgeStyle=orthogonalEdgeStyle;rounded=0;orthogonalLoop=1;jettySize=auto;html=1;strokeColor=default;align=center;verticalAlign=middle;fontFamily=Helvetica;fontSize=11;fontColor=default;labelBackgroundColor=default;endArrow=block;sourcePerimeterSpacing=6;targetPerimeterSpacing=6;endFill=1;" parent="1" source="WCmOqJApZtAGnSyVygM3-4" target="WCmOqJApZtAGnSyVygM3-139" edge="1">
          <mxGeometry relative="1" as="geometry">
            <Array as="points">
              <mxPoint x="320" y="665" />
            </Array>
          </mxGeometry>
        </mxCell>
        <mxCell id="WCmOqJApZtAGnSyVygM3-152" value="mqtt:&lt;br&gt;receives&lt;br&gt;Subscribe&lt;br&gt;Packet" style="edgeLabel;html=1;align=center;verticalAlign=middle;resizable=0;points=[];rounded=0;dashed=1;strokeColor=default;fontFamily=Helvetica;fontSize=11;fontColor=default;labelBackgroundColor=default;" parent="WCmOqJApZtAGnSyVygM3-148" vertex="1" connectable="0">
          <mxGeometry x="0.8434" relative="1" as="geometry">
            <mxPoint x="-33" as="offset" />
          </mxGeometry>
        </mxCell>
        <mxCell id="WCmOqJApZtAGnSyVygM3-4" value="Broker&lt;span style=&quot;color: rgba(0, 0, 0, 0); font-family: monospace; font-size: 0px; text-align: start; text-wrap-mode: nowrap;&quot;&gt;%3CmxGraphModel%3E%3Croot%3E%3CmxCell%20id%3D%220%22%2F%3E%3CmxCell%20id%3D%221%22%20parent%3D%220%22%2F%3E%3CmxCell%20id%3D%222%22%20value%3D%22NetworkParticipant%22%20style%3D%22rounded%3D1%3BarcSize%3D10%3BwhiteSpace%3Dwrap%3Bhtml%3D1%3Balign%3Dcenter%3B%22%20vertex%3D%221%22%20parent%3D%221%22%3E%3CmxGeometry%20x%3D%22300%22%20y%3D%22360%22%20width%3D%22100%22%20height%3D%2240%22%20as%3D%22geometry%22%2F%3E%3C%2FmxCell%3E%3C%2Froot%3E%3C%2FmxGraphModel%3E&lt;/span&gt;" style="rounded=1;arcSize=10;whiteSpace=wrap;html=1;align=center;fillColor=#008a00;fontColor=#ffffff;strokeColor=#005700;shape=ellipse;perimeter=ellipsePerimeter;" parent="1" vertex="1">
          <mxGeometry x="290" y="410" width="60" height="30" as="geometry" />
        </mxCell>
        <mxCell id="WCmOqJApZtAGnSyVygM3-14" value="" style="edgeStyle=orthogonalEdgeStyle;rounded=0;orthogonalLoop=1;jettySize=auto;html=1;strokeColor=default;align=center;verticalAlign=middle;fontFamily=Helvetica;fontSize=11;fontColor=default;labelBackgroundColor=default;endArrow=block;endFill=1;sourcePerimeterSpacing=6;targetPerimeterSpacing=6;curved=0;fillColor=default;startArrow=block;startFill=1;" parent="1" source="WCmOqJApZtAGnSyVygM3-5" target="WCmOqJApZtAGnSyVygM3-6" edge="1">
          <mxGeometry relative="1" as="geometry" />
        </mxCell>
        <mxCell id="Pp_cTzMIZjNAPxuEeKP_-16" value="owl:equivalentClass" style="edgeLabel;html=1;align=center;verticalAlign=middle;resizable=0;points=[];" parent="WCmOqJApZtAGnSyVygM3-14" vertex="1" connectable="0">
          <mxGeometry x="0.023" y="-3" relative="1" as="geometry">
            <mxPoint x="-3" y="-5" as="offset" />
          </mxGeometry>
        </mxCell>
        <mxCell id="WCmOqJApZtAGnSyVygM3-21" value="mqtt:hasClientID" style="edgeStyle=orthogonalEdgeStyle;rounded=0;orthogonalLoop=1;jettySize=auto;html=1;align=center;verticalAlign=middle;fontFamily=Helvetica;fontSize=11;fontColor=default;labelBorderColor=none;labelBackgroundColor=default;resizable=0;fillColor=none;gradientColor=none;strokeColor=default;endArrow=block;sourcePerimeterSpacing=6;targetPerimeterSpacing=6;endFill=1;" parent="1" source="WCmOqJApZtAGnSyVygM3-5" target="WCmOqJApZtAGnSyVygM3-16" edge="1">
          <mxGeometry x="0.5245" relative="1" as="geometry">
            <Array as="points">
              <mxPoint x="680" y="380" />
              <mxPoint x="735" y="380" />
            </Array>
            <mxPoint as="offset" />
          </mxGeometry>
        </mxCell>
        <mxCell id="WCmOqJApZtAGnSyVygM3-34" style="edgeStyle=orthogonalEdgeStyle;rounded=0;orthogonalLoop=1;jettySize=auto;html=1;strokeColor=default;align=center;verticalAlign=middle;fontFamily=Helvetica;fontSize=11;fontColor=default;labelBackgroundColor=default;endArrow=block;sourcePerimeterSpacing=6;targetPerimeterSpacing=6;endFill=0;dashed=1;" parent="1" source="WCmOqJApZtAGnSyVygM3-5" target="WCmOqJApZtAGnSyVygM3-3" edge="1">
          <mxGeometry relative="1" as="geometry">
            <Array as="points">
              <mxPoint x="530" y="420" />
            </Array>
          </mxGeometry>
        </mxCell>
        <mxCell id="WCmOqJApZtAGnSyVygM3-166" style="edgeStyle=orthogonalEdgeStyle;rounded=0;orthogonalLoop=1;jettySize=auto;html=1;strokeColor=default;align=center;verticalAlign=middle;fontFamily=Helvetica;fontSize=11;fontColor=default;labelBackgroundColor=default;endArrow=block;sourcePerimeterSpacing=6;targetPerimeterSpacing=6;startArrow=block;startFill=1;endFill=1;" parent="1" source="WCmOqJApZtAGnSyVygM3-5" target="WCmOqJApZtAGnSyVygM3-141" edge="1">
          <mxGeometry relative="1" as="geometry">
            <Array as="points">
              <mxPoint x="660" y="490" />
              <mxPoint x="590" y="490" />
              <mxPoint x="590" y="525" />
            </Array>
          </mxGeometry>
        </mxCell>
        <mxCell id="WCmOqJApZtAGnSyVygM3-171" value="mqtt:sends&lt;br&gt;ControlPacket" style="edgeLabel;html=1;align=center;verticalAlign=middle;resizable=0;points=[];" parent="WCmOqJApZtAGnSyVygM3-166" vertex="1" connectable="0">
          <mxGeometry x="0.4628" y="-2" relative="1" as="geometry">
            <mxPoint x="10" y="7" as="offset" />
          </mxGeometry>
        </mxCell>
        <mxCell id="WCmOqJApZtAGnSyVygM3-172" value="mqtt:is&lt;br&gt;SendBy" style="edgeLabel;html=1;align=center;verticalAlign=middle;resizable=0;points=[];" parent="WCmOqJApZtAGnSyVygM3-166" vertex="1" connectable="0">
          <mxGeometry x="-0.3904" y="-2" relative="1" as="geometry">
            <mxPoint x="-16" y="4" as="offset" />
          </mxGeometry>
        </mxCell>
        <mxCell id="WCmOqJApZtAGnSyVygM3-167" style="edgeStyle=orthogonalEdgeStyle;rounded=0;orthogonalLoop=1;jettySize=auto;html=1;strokeColor=default;align=center;verticalAlign=middle;fontFamily=Helvetica;fontSize=11;fontColor=default;labelBackgroundColor=default;endArrow=block;sourcePerimeterSpacing=6;targetPerimeterSpacing=6;endFill=1;" parent="1" source="WCmOqJApZtAGnSyVygM3-5" target="WCmOqJApZtAGnSyVygM3-138" edge="1">
          <mxGeometry relative="1" as="geometry">
            <Array as="points">
              <mxPoint x="670" y="585" />
            </Array>
          </mxGeometry>
        </mxCell>
        <mxCell id="WCmOqJApZtAGnSyVygM3-173" value="mqtt:&lt;br&gt;publishes&lt;br&gt;Packet" style="edgeLabel;html=1;align=center;verticalAlign=middle;resizable=0;points=[];" parent="WCmOqJApZtAGnSyVygM3-167" vertex="1" connectable="0">
          <mxGeometry x="0.5485" y="1" relative="1" as="geometry">
            <mxPoint as="offset" />
          </mxGeometry>
        </mxCell>
        <mxCell id="WCmOqJApZtAGnSyVygM3-168" style="edgeStyle=orthogonalEdgeStyle;rounded=0;orthogonalLoop=1;jettySize=auto;html=1;strokeColor=default;align=center;verticalAlign=middle;fontFamily=Helvetica;fontSize=11;fontColor=default;labelBackgroundColor=default;endArrow=block;sourcePerimeterSpacing=6;targetPerimeterSpacing=6;endFill=1;" parent="1" source="WCmOqJApZtAGnSyVygM3-5" target="WCmOqJApZtAGnSyVygM3-139" edge="1">
          <mxGeometry relative="1" as="geometry">
            <Array as="points">
              <mxPoint x="680" y="665" />
            </Array>
          </mxGeometry>
        </mxCell>
        <mxCell id="WCmOqJApZtAGnSyVygM3-174" value="mqtt:&lt;br&gt;subscribes&lt;br&gt;Packet" style="edgeLabel;html=1;align=center;verticalAlign=middle;resizable=0;points=[];" parent="WCmOqJApZtAGnSyVygM3-168" vertex="1" connectable="0">
          <mxGeometry x="0.7087" y="-1" relative="1" as="geometry">
            <mxPoint x="18" y="1" as="offset" />
          </mxGeometry>
        </mxCell>
        <mxCell id="WCmOqJApZtAGnSyVygM3-169" style="edgeStyle=orthogonalEdgeStyle;rounded=0;orthogonalLoop=1;jettySize=auto;html=1;strokeColor=default;align=center;verticalAlign=middle;fontFamily=Helvetica;fontSize=11;fontColor=default;labelBackgroundColor=default;endArrow=block;sourcePerimeterSpacing=6;targetPerimeterSpacing=6;endFill=1;" parent="1" source="WCmOqJApZtAGnSyVygM3-5" target="WCmOqJApZtAGnSyVygM3-140" edge="1">
          <mxGeometry relative="1" as="geometry">
            <Array as="points">
              <mxPoint x="690" y="745" />
            </Array>
          </mxGeometry>
        </mxCell>
        <mxCell id="WCmOqJApZtAGnSyVygM3-175" value="mqtt:&lt;br&gt;unsubscribes&lt;br&gt;Packet" style="edgeLabel;html=1;align=center;verticalAlign=middle;resizable=0;points=[];" parent="WCmOqJApZtAGnSyVygM3-169" vertex="1" connectable="0">
          <mxGeometry x="0.7721" y="1" relative="1" as="geometry">
            <mxPoint x="15" y="-1" as="offset" />
          </mxGeometry>
        </mxCell>
        <mxCell id="WCmOqJApZtAGnSyVygM3-281" style="edgeStyle=orthogonalEdgeStyle;rounded=0;orthogonalLoop=1;jettySize=auto;html=1;strokeColor=default;align=center;verticalAlign=middle;fontFamily=Helvetica;fontSize=11;fontColor=default;labelBackgroundColor=default;endArrow=block;sourcePerimeterSpacing=6;targetPerimeterSpacing=6;startArrow=block;startFill=1;endFill=1;" parent="1" source="WCmOqJApZtAGnSyVygM3-5" target="WCmOqJApZtAGnSyVygM3-4" edge="1">
          <mxGeometry relative="1" as="geometry">
            <mxPoint x="600" y="440" as="sourcePoint" />
            <mxPoint x="360" y="470" as="targetPoint" />
            <Array as="points">
              <mxPoint x="650" y="470" />
              <mxPoint x="340" y="470" />
            </Array>
          </mxGeometry>
        </mxCell>
        <mxCell id="WCmOqJApZtAGnSyVygM3-282" value="mqtt:isConnectedToBroker" style="edgeLabel;html=1;align=center;verticalAlign=middle;resizable=0;points=[];" parent="WCmOqJApZtAGnSyVygM3-281" vertex="1" connectable="0">
          <mxGeometry x="0.5788" relative="1" as="geometry">
            <mxPoint x="23" y="-2" as="offset" />
          </mxGeometry>
        </mxCell>
        <mxCell id="WCmOqJApZtAGnSyVygM3-283" value="mqtt:hasConnectedClient" style="edgeLabel;html=1;align=center;verticalAlign=middle;resizable=0;points=[];" parent="WCmOqJApZtAGnSyVygM3-281" vertex="1" connectable="0">
          <mxGeometry x="-0.2127" relative="1" as="geometry">
            <mxPoint x="31" y="-2" as="offset" />
          </mxGeometry>
        </mxCell>
        <mxCell id="WCmOqJApZtAGnSyVygM3-5" value="Client" style="rounded=1;arcSize=10;whiteSpace=wrap;html=1;align=center;fillColor=#008a00;fontColor=#ffffff;strokeColor=#005700;shape=ellipse;perimeter=ellipsePerimeter;" parent="1" vertex="1">
          <mxGeometry x="645" y="410" width="50" height="30" as="geometry" />
        </mxCell>
        <mxCell id="WCmOqJApZtAGnSyVygM3-6" value="Client" style="rounded=1;arcSize=10;whiteSpace=wrap;html=1;align=center;fillColor=#1ba1e2;fontColor=#ffffff;strokeColor=#006EAF;shape=ellipse;perimeter=ellipsePerimeter;" parent="1" vertex="1">
          <mxGeometry x="844.86" y="410" width="50" height="30" as="geometry" />
        </mxCell>
        <mxCell id="WCmOqJApZtAGnSyVygM3-25" value="mqtt:hasPortNumber" style="edgeStyle=orthogonalEdgeStyle;rounded=0;orthogonalLoop=1;jettySize=auto;html=1;strokeColor=default;align=center;verticalAlign=middle;fontFamily=Helvetica;fontSize=11;fontColor=default;labelBackgroundColor=default;endArrow=block;sourcePerimeterSpacing=6;targetPerimeterSpacing=6;endFill=1;" parent="1" source="WCmOqJApZtAGnSyVygM3-4" target="WCmOqJApZtAGnSyVygM3-17" edge="1">
          <mxGeometry x="0.4887" relative="1" as="geometry">
            <Array as="points">
              <mxPoint x="340" y="380" />
              <mxPoint x="385" y="380" />
            </Array>
            <mxPoint as="offset" />
          </mxGeometry>
        </mxCell>
        <mxCell id="WCmOqJApZtAGnSyVygM3-7" value="Server" style="rounded=1;arcSize=10;whiteSpace=wrap;html=1;align=center;fillColor=#1ba1e2;fontColor=#ffffff;strokeColor=#006EAF;shape=ellipse;perimeter=ellipsePerimeter;" parent="1" vertex="1">
          <mxGeometry x="80" y="410" width="60" height="30" as="geometry" />
        </mxCell>
        <mxCell id="WCmOqJApZtAGnSyVygM3-12" value="" style="edgeStyle=orthogonalEdgeStyle;rounded=0;orthogonalLoop=1;jettySize=auto;html=1;endArrow=block;endFill=1;curved=0;sourcePerimeterSpacing=6;strokeColor=default;fillColor=default;targetPerimeterSpacing=6;startArrow=block;startFill=1;" parent="1" source="WCmOqJApZtAGnSyVygM3-10" target="WCmOqJApZtAGnSyVygM3-11" edge="1">
          <mxGeometry relative="1" as="geometry" />
        </mxCell>
        <mxCell id="Pp_cTzMIZjNAPxuEeKP_-14" value="owl:equivalentClass" style="edgeLabel;html=1;align=center;verticalAlign=middle;resizable=0;points=[];" parent="WCmOqJApZtAGnSyVygM3-12" vertex="1" connectable="0">
          <mxGeometry x="0.1579" y="-3" relative="1" as="geometry">
            <mxPoint x="3" y="-16" as="offset" />
          </mxGeometry>
        </mxCell>
        <mxCell id="WCmOqJApZtAGnSyVygM3-29" value="mqtt:usesConnection" style="edgeStyle=orthogonalEdgeStyle;rounded=0;orthogonalLoop=1;jettySize=auto;html=1;strokeColor=default;align=center;verticalAlign=middle;fontFamily=Helvetica;fontSize=11;fontColor=default;labelBackgroundColor=default;endArrow=block;sourcePerimeterSpacing=6;targetPerimeterSpacing=6;startArrow=block;startFill=1;endFill=1;" parent="1" source="WCmOqJApZtAGnSyVygM3-11" target="WCmOqJApZtAGnSyVygM3-3" edge="1">
          <mxGeometry x="-0.266" relative="1" as="geometry">
            <Array as="points">
              <mxPoint x="590" y="255" />
              <mxPoint x="590" y="385" />
            </Array>
            <mxPoint as="offset" />
          </mxGeometry>
        </mxCell>
        <mxCell id="WCmOqJApZtAGnSyVygM3-66" value="mqtt:hasParticipant" style="edgeLabel;html=1;align=center;verticalAlign=middle;resizable=0;points=[];" parent="WCmOqJApZtAGnSyVygM3-29" vertex="1" connectable="0">
          <mxGeometry x="0.2097" y="-2" relative="1" as="geometry">
            <mxPoint x="2" y="15" as="offset" />
          </mxGeometry>
        </mxCell>
        <mxCell id="WCmOqJApZtAGnSyVygM3-10" value="NetworkConnection" style="rounded=1;arcSize=10;html=1;align=center;fillColor=#1ba1e2;labelBorderColor=none;labelBackgroundColor=none;convertToSvg=0;spacing=2;spacingLeft=0;spacingRight=0;whiteSpace=wrap;fontColor=#ffffff;strokeColor=#006EAF;shape=ellipse;perimeter=ellipsePerimeter;" parent="1" vertex="1">
          <mxGeometry x="430" y="130" width="120" height="30" as="geometry" />
        </mxCell>
        <mxCell id="WCmOqJApZtAGnSyVygM3-19" value="" style="edgeStyle=orthogonalEdgeStyle;rounded=0;orthogonalLoop=1;jettySize=auto;html=1;sourcePerimeterSpacing=6;targetPerimeterSpacing=6;endArrow=block;endFill=1;" parent="1" source="WCmOqJApZtAGnSyVygM3-11" target="WCmOqJApZtAGnSyVygM3-18" edge="1">
          <mxGeometry relative="1" as="geometry" />
        </mxCell>
        <mxCell id="WCmOqJApZtAGnSyVygM3-20" value="mqtt:usesTLS" style="edgeLabel;align=center;verticalAlign=middle;resizable=0;points=[];labelBackgroundColor=default;labelBorderColor=none;" parent="WCmOqJApZtAGnSyVygM3-19" vertex="1" connectable="0">
          <mxGeometry x="-0.1301" y="-1" relative="1" as="geometry">
            <mxPoint x="1" y="-2" as="offset" />
          </mxGeometry>
        </mxCell>
        <mxCell id="WCmOqJApZtAGnSyVygM3-31" value="mqtt:isInitiatedBy" style="edgeStyle=orthogonalEdgeStyle;rounded=0;orthogonalLoop=1;jettySize=auto;html=1;strokeColor=default;align=center;verticalAlign=middle;fontFamily=Helvetica;fontSize=11;fontColor=default;labelBackgroundColor=default;endArrow=block;sourcePerimeterSpacing=6;targetPerimeterSpacing=6;endFill=1;" parent="1" source="WCmOqJApZtAGnSyVygM3-11" target="WCmOqJApZtAGnSyVygM3-5" edge="1">
          <mxGeometry x="-0.4598" relative="1" as="geometry">
            <Array as="points">
              <mxPoint x="530" y="210" />
              <mxPoint x="660" y="210" />
            </Array>
            <mxPoint as="offset" />
          </mxGeometry>
        </mxCell>
        <mxCell id="WCmOqJApZtAGnSyVygM3-11" value="NetworkConnection" style="rounded=1;arcSize=10;html=1;align=center;fillColor=#008a00;labelBorderColor=none;labelBackgroundColor=none;convertToSvg=0;spacing=2;spacingLeft=0;spacingRight=0;whiteSpace=wrap;fontColor=#ffffff;strokeColor=#005700;shape=ellipse;perimeter=ellipsePerimeter;" parent="1" vertex="1">
          <mxGeometry x="430" y="240" width="120" height="30" as="geometry" />
        </mxCell>
        <mxCell id="WCmOqJApZtAGnSyVygM3-15" value="string" style="whiteSpace=wrap;html=1;align=center;fillColor=#d80073;fontColor=#ffffff;strokeColor=#A50040;" parent="1" vertex="1">
          <mxGeometry x="220" y="280" width="50" height="30" as="geometry" />
        </mxCell>
        <mxCell id="WCmOqJApZtAGnSyVygM3-16" value="string" style="whiteSpace=wrap;html=1;align=center;fillColor=#d80073;fontColor=#ffffff;strokeColor=#A50040;" parent="1" vertex="1">
          <mxGeometry x="710" y="280" width="50" height="30" as="geometry" />
        </mxCell>
        <mxCell id="WCmOqJApZtAGnSyVygM3-17" value="integer" style="whiteSpace=wrap;html=1;align=center;fillColor=#d80073;fontColor=#ffffff;strokeColor=#A50040;" parent="1" vertex="1">
          <mxGeometry x="355" y="280" width="60" height="30" as="geometry" />
        </mxCell>
        <mxCell id="WCmOqJApZtAGnSyVygM3-18" value="boolean" style="whiteSpace=wrap;html=1;align=center;fillColor=#d80073;fontColor=#ffffff;strokeColor=#A50040;" parent="1" vertex="1">
          <mxGeometry x="455" y="320" width="70" height="30" as="geometry" />
        </mxCell>
        <mxCell id="WCmOqJApZtAGnSyVygM3-38" value="System" style="rounded=1;arcSize=10;whiteSpace=wrap;html=1;align=center;fillColor=#6a00ff;fontColor=#ffffff;strokeColor=#3700CC;shape=ellipse;perimeter=ellipsePerimeter;" parent="1" vertex="1">
          <mxGeometry x="579.86" y="1590" width="60" height="30" as="geometry" />
        </mxCell>
        <mxCell id="WCmOqJApZtAGnSyVygM3-49" style="edgeStyle=orthogonalEdgeStyle;rounded=0;orthogonalLoop=1;jettySize=auto;html=1;strokeColor=default;align=center;verticalAlign=middle;fontFamily=Helvetica;fontSize=11;fontColor=default;labelBackgroundColor=default;endArrow=block;sourcePerimeterSpacing=6;targetPerimeterSpacing=6;dashed=1;endFill=0;" parent="1" source="WCmOqJApZtAGnSyVygM3-39" target="WCmOqJApZtAGnSyVygM3-38" edge="1">
          <mxGeometry relative="1" as="geometry">
            <Array as="points">
              <mxPoint x="695" y="1550" />
              <mxPoint x="610" y="1550" />
            </Array>
          </mxGeometry>
        </mxCell>
        <mxCell id="WCmOqJApZtAGnSyVygM3-58" value="mqtt:observes&lt;br&gt;Topic" style="edgeStyle=orthogonalEdgeStyle;rounded=0;orthogonalLoop=1;jettySize=auto;html=1;strokeColor=default;align=center;verticalAlign=middle;fontFamily=Helvetica;fontSize=11;fontColor=default;labelBackgroundColor=default;endArrow=block;sourcePerimeterSpacing=6;targetPerimeterSpacing=6;endFill=1;" parent="1" source="WCmOqJApZtAGnSyVygM3-39" edge="1">
          <mxGeometry x="-0.4688" relative="1" as="geometry">
            <Array as="points">
              <mxPoint x="849" y="1585" />
            </Array>
            <mxPoint as="offset" />
            <mxPoint x="744.8599999999999" y="1588" as="sourcePoint" />
            <mxPoint x="848.8599999999999" y="1662" as="targetPoint" />
          </mxGeometry>
        </mxCell>
        <mxCell id="WCmOqJApZtAGnSyVygM3-39" value="Sensor" style="rounded=1;arcSize=10;whiteSpace=wrap;html=1;align=center;fillColor=#6a00ff;fontColor=#ffffff;strokeColor=#3700CC;shape=ellipse;perimeter=ellipsePerimeter;" parent="1" vertex="1">
          <mxGeometry x="664.86" y="1570" width="60" height="30" as="geometry" />
        </mxCell>
        <mxCell id="WCmOqJApZtAGnSyVygM3-40" value="Platform" style="rounded=1;arcSize=10;whiteSpace=wrap;html=1;align=center;fillColor=#6a00ff;fontColor=#ffffff;strokeColor=#3700CC;shape=ellipse;perimeter=ellipsePerimeter;" parent="1" vertex="1">
          <mxGeometry x="345" y="1665" width="70" height="30" as="geometry" />
        </mxCell>
        <mxCell id="WCmOqJApZtAGnSyVygM3-50" style="edgeStyle=orthogonalEdgeStyle;rounded=0;orthogonalLoop=1;jettySize=auto;html=1;strokeColor=default;align=center;verticalAlign=middle;fontFamily=Helvetica;fontSize=11;fontColor=default;labelBackgroundColor=default;endArrow=block;sourcePerimeterSpacing=6;targetPerimeterSpacing=6;fontStyle=4;dashed=1;endFill=0;" parent="1" source="WCmOqJApZtAGnSyVygM3-41" target="WCmOqJApZtAGnSyVygM3-38" edge="1">
          <mxGeometry relative="1" as="geometry">
            <Array as="points">
              <mxPoint x="695" y="1670" />
              <mxPoint x="610" y="1670" />
            </Array>
          </mxGeometry>
        </mxCell>
        <mxCell id="WCmOqJApZtAGnSyVygM3-59" value="mqtt:listens&lt;br&gt;ToTopic" style="edgeStyle=orthogonalEdgeStyle;rounded=0;orthogonalLoop=1;jettySize=auto;html=1;strokeColor=default;align=center;verticalAlign=middle;fontFamily=Helvetica;fontSize=11;fontColor=default;labelBackgroundColor=default;endArrow=block;sourcePerimeterSpacing=6;targetPerimeterSpacing=6;endFill=1;" parent="1" source="WCmOqJApZtAGnSyVygM3-41" target="WCmOqJApZtAGnSyVygM3-43" edge="1">
          <mxGeometry x="-0.1834" relative="1" as="geometry">
            <Array as="points">
              <mxPoint x="820" y="1635" />
            </Array>
            <mxPoint as="offset" />
          </mxGeometry>
        </mxCell>
        <mxCell id="WCmOqJApZtAGnSyVygM3-41" value="Actuator" style="rounded=1;arcSize=10;whiteSpace=wrap;html=1;align=center;fillColor=#6a00ff;fontColor=#ffffff;strokeColor=#3700CC;shape=ellipse;perimeter=ellipsePerimeter;" parent="1" vertex="1">
          <mxGeometry x="659.86" y="1620" width="70" height="30" as="geometry" />
        </mxCell>
        <mxCell id="WCmOqJApZtAGnSyVygM3-52" style="edgeStyle=orthogonalEdgeStyle;rounded=0;orthogonalLoop=1;jettySize=auto;html=1;strokeColor=default;align=center;verticalAlign=middle;fontFamily=Helvetica;fontSize=11;fontColor=default;labelBackgroundColor=default;endArrow=block;endFill=1;sourcePerimeterSpacing=6;targetPerimeterSpacing=6;curved=0;fillColor=default;startArrow=block;startFill=1;" parent="1" source="WCmOqJApZtAGnSyVygM3-42" target="WCmOqJApZtAGnSyVygM3-43" edge="1">
          <mxGeometry relative="1" as="geometry" />
        </mxCell>
        <mxCell id="Pp_cTzMIZjNAPxuEeKP_-18" value="owl:equivalentClass" style="edgeLabel;html=1;align=center;verticalAlign=middle;resizable=0;points=[];rounded=0;dashed=1;strokeColor=default;fontFamily=Helvetica;fontSize=11;fontColor=default;labelBackgroundColor=default;fillColor=default;" parent="WCmOqJApZtAGnSyVygM3-52" vertex="1" connectable="0">
          <mxGeometry x="0.0571" y="3" relative="1" as="geometry">
            <mxPoint x="6" y="-3" as="offset" />
          </mxGeometry>
        </mxCell>
        <mxCell id="WCmOqJApZtAGnSyVygM3-42" value="TopicName" style="rounded=1;arcSize=10;whiteSpace=wrap;html=1;align=center;fillColor=#1ba1e2;fontColor=#ffffff;strokeColor=#006EAF;shape=ellipse;perimeter=ellipsePerimeter;" parent="1" vertex="1">
          <mxGeometry x="1014.86" y="1665" width="80" height="30" as="geometry" />
        </mxCell>
        <mxCell id="WCmOqJApZtAGnSyVygM3-43" value="Topic" style="rounded=1;arcSize=10;whiteSpace=wrap;html=1;align=center;fillColor=#008a00;fontColor=#ffffff;strokeColor=#005700;shape=ellipse;perimeter=ellipsePerimeter;" parent="1" vertex="1">
          <mxGeometry x="809.86" y="1665" width="50" height="30" as="geometry" />
        </mxCell>
        <mxCell id="WCmOqJApZtAGnSyVygM3-55" value="mqtt:hasPatternFilter" style="edgeStyle=orthogonalEdgeStyle;rounded=0;orthogonalLoop=1;jettySize=auto;html=1;strokeColor=default;align=center;verticalAlign=middle;fontFamily=Helvetica;fontSize=11;fontColor=default;labelBackgroundColor=default;endArrow=block;endFill=1;sourcePerimeterSpacing=6;targetPerimeterSpacing=6;curved=0;fillColor=default;startArrow=none;startFill=0;" parent="1" source="WCmOqJApZtAGnSyVygM3-44" target="WCmOqJApZtAGnSyVygM3-48" edge="1">
          <mxGeometry x="0.5556" relative="1" as="geometry">
            <Array as="points">
              <mxPoint x="810" y="1880" />
              <mxPoint x="810" y="1880" />
            </Array>
            <mxPoint as="offset" />
          </mxGeometry>
        </mxCell>
        <mxCell id="WCmOqJApZtAGnSyVygM3-57" value="mqtt:matchesTopic" style="edgeStyle=orthogonalEdgeStyle;rounded=0;orthogonalLoop=1;jettySize=auto;html=1;startArrow=block;startFill=1;strokeColor=default;align=center;verticalAlign=middle;fontFamily=Helvetica;fontSize=11;fontColor=default;labelBackgroundColor=default;endArrow=block;sourcePerimeterSpacing=6;targetPerimeterSpacing=6;endFill=1;" parent="1" source="WCmOqJApZtAGnSyVygM3-44" target="WCmOqJApZtAGnSyVygM3-43" edge="1">
          <mxGeometry x="0.3968" relative="1" as="geometry">
            <Array as="points">
              <mxPoint x="835" y="1770" />
              <mxPoint x="835" y="1770" />
            </Array>
            <mxPoint as="offset" />
          </mxGeometry>
        </mxCell>
        <mxCell id="WCmOqJApZtAGnSyVygM3-67" value="mqtt:matchedByFilter" style="edgeLabel;html=1;align=center;verticalAlign=middle;resizable=0;points=[];rounded=0;dashed=1;strokeColor=default;fontFamily=Helvetica;fontSize=11;fontColor=default;labelBackgroundColor=default;" parent="WCmOqJApZtAGnSyVygM3-57" vertex="1" connectable="0">
          <mxGeometry x="-0.2801" y="1" relative="1" as="geometry">
            <mxPoint x="1" y="8" as="offset" />
          </mxGeometry>
        </mxCell>
        <mxCell id="WCmOqJApZtAGnSyVygM3-44" value="TopicFilter" style="rounded=1;arcSize=10;whiteSpace=wrap;html=1;align=center;fillColor=#008a00;fontColor=#ffffff;strokeColor=#005700;shape=ellipse;perimeter=ellipsePerimeter;" parent="1" vertex="1">
          <mxGeometry x="794.86" y="1795" width="80" height="30" as="geometry" />
        </mxCell>
        <mxCell id="WCmOqJApZtAGnSyVygM3-53" style="edgeStyle=orthogonalEdgeStyle;rounded=0;orthogonalLoop=1;jettySize=auto;html=1;strokeColor=default;align=center;verticalAlign=middle;fontFamily=Helvetica;fontSize=11;fontColor=default;labelBackgroundColor=default;endArrow=block;endFill=1;sourcePerimeterSpacing=6;targetPerimeterSpacing=6;curved=0;fillColor=default;startArrow=block;startFill=1;" parent="1" source="WCmOqJApZtAGnSyVygM3-45" target="WCmOqJApZtAGnSyVygM3-44" edge="1">
          <mxGeometry relative="1" as="geometry" />
        </mxCell>
        <mxCell id="Pp_cTzMIZjNAPxuEeKP_-19" value="owl:equivalentClass" style="edgeLabel;html=1;align=center;verticalAlign=middle;resizable=0;points=[];rounded=0;dashed=1;strokeColor=default;fontFamily=Helvetica;fontSize=11;fontColor=default;labelBackgroundColor=default;fillColor=default;" parent="WCmOqJApZtAGnSyVygM3-53" vertex="1" connectable="0">
          <mxGeometry x="0.0868" y="-1" relative="1" as="geometry">
            <mxPoint x="5" y="1" as="offset" />
          </mxGeometry>
        </mxCell>
        <mxCell id="WCmOqJApZtAGnSyVygM3-45" value="TopicFilter" style="rounded=1;arcSize=10;whiteSpace=wrap;html=1;align=center;fillColor=#1ba1e2;fontColor=#ffffff;strokeColor=#006EAF;shape=ellipse;perimeter=ellipsePerimeter;" parent="1" vertex="1">
          <mxGeometry x="1014.86" y="1795" width="80" height="30" as="geometry" />
        </mxCell>
        <mxCell id="WCmOqJApZtAGnSyVygM3-69" style="edgeStyle=orthogonalEdgeStyle;rounded=0;orthogonalLoop=1;jettySize=auto;html=1;startArrow=block;startFill=1;strokeColor=default;align=center;verticalAlign=middle;fontFamily=Helvetica;fontSize=11;fontColor=default;labelBackgroundColor=default;endArrow=block;sourcePerimeterSpacing=6;targetPerimeterSpacing=6;endFill=1;" parent="1" source="WCmOqJApZtAGnSyVygM3-46" target="WCmOqJApZtAGnSyVygM3-40" edge="1">
          <mxGeometry relative="1" as="geometry">
            <Array as="points">
              <mxPoint x="290" y="1555" />
              <mxPoint x="290" y="1680" />
            </Array>
          </mxGeometry>
        </mxCell>
        <mxCell id="WCmOqJApZtAGnSyVygM3-70" value="mqtt:runsOnPlatform" style="edgeLabel;html=1;align=center;verticalAlign=middle;resizable=0;points=[];rounded=0;dashed=1;strokeColor=default;fontFamily=Helvetica;fontSize=11;fontColor=default;labelBackgroundColor=default;" parent="WCmOqJApZtAGnSyVygM3-69" vertex="1" connectable="0">
          <mxGeometry x="0.1464" y="1" relative="1" as="geometry">
            <mxPoint x="-1" y="14" as="offset" />
          </mxGeometry>
        </mxCell>
        <mxCell id="WCmOqJApZtAGnSyVygM3-71" value="mqtt:hasClient" style="edgeLabel;html=1;align=center;verticalAlign=middle;resizable=0;points=[];rounded=0;dashed=1;strokeColor=default;fontFamily=Helvetica;fontSize=11;fontColor=default;labelBackgroundColor=default;" parent="WCmOqJApZtAGnSyVygM3-69" vertex="1" connectable="0">
          <mxGeometry x="-0.6325" relative="1" as="geometry">
            <mxPoint x="-14" y="24" as="offset" />
          </mxGeometry>
        </mxCell>
        <mxCell id="WCmOqJApZtAGnSyVygM3-46" value="Client" style="rounded=1;arcSize=10;whiteSpace=wrap;html=1;align=center;fillColor=#008a00;fontColor=#ffffff;strokeColor=#005700;shape=ellipse;perimeter=ellipsePerimeter;" parent="1" vertex="1">
          <mxGeometry x="350" y="1540" width="50" height="30" as="geometry" />
        </mxCell>
        <mxCell id="WCmOqJApZtAGnSyVygM3-54" style="edgeStyle=orthogonalEdgeStyle;rounded=0;orthogonalLoop=1;jettySize=auto;html=1;strokeColor=default;align=center;verticalAlign=middle;fontFamily=Helvetica;fontSize=11;fontColor=default;labelBorderColor=none;labelBackgroundColor=default;resizable=0;endArrow=block;sourcePerimeterSpacing=6;targetPerimeterSpacing=6;fillColor=default;gradientColor=none;endFill=1;curved=0;startArrow=block;startFill=1;" parent="1" source="WCmOqJApZtAGnSyVygM3-47" target="WCmOqJApZtAGnSyVygM3-46" edge="1">
          <mxGeometry relative="1" as="geometry" />
        </mxCell>
        <mxCell id="Pp_cTzMIZjNAPxuEeKP_-17" value="owl:equivalentClass" style="edgeLabel;html=1;align=center;verticalAlign=middle;resizable=0;points=[];rounded=0;dashed=1;strokeColor=default;fontFamily=Helvetica;fontSize=11;fontColor=default;labelBackgroundColor=default;fillColor=default;" parent="WCmOqJApZtAGnSyVygM3-54" vertex="1" connectable="0">
          <mxGeometry x="0.7368" y="-2" relative="1" as="geometry">
            <mxPoint x="-2" y="13" as="offset" />
          </mxGeometry>
        </mxCell>
        <mxCell id="WCmOqJApZtAGnSyVygM3-47" value="Client" style="rounded=1;arcSize=10;whiteSpace=wrap;html=1;align=center;fillColor=#1ba1e2;fontColor=#ffffff;strokeColor=#006EAF;shape=ellipse;perimeter=ellipsePerimeter;" parent="1" vertex="1">
          <mxGeometry x="350" y="1620" width="50" height="30" as="geometry" />
        </mxCell>
        <mxCell id="WCmOqJApZtAGnSyVygM3-48" value="string" style="whiteSpace=wrap;html=1;align=center;fillColor=#d80073;fontColor=#ffffff;strokeColor=#A50040;" parent="1" vertex="1">
          <mxGeometry x="784.86" y="2040" width="50" height="30" as="geometry" />
        </mxCell>
        <mxCell id="WCmOqJApZtAGnSyVygM3-141" value="ControlPacket" style="rounded=1;arcSize=10;whiteSpace=wrap;html=1;align=center;fillColor=#008a00;fontColor=#ffffff;strokeColor=#005700;strokeWidth=2;shape=ellipse;perimeter=ellipsePerimeter;" parent="1" vertex="1">
          <mxGeometry x="440" y="510" width="100" height="30" as="geometry" />
        </mxCell>
        <mxCell id="WCmOqJApZtAGnSyVygM3-163" style="edgeStyle=orthogonalEdgeStyle;rounded=0;orthogonalLoop=1;jettySize=auto;html=1;strokeColor=default;align=center;verticalAlign=middle;fontFamily=Helvetica;fontSize=11;fontColor=default;labelBackgroundColor=default;endArrow=block;sourcePerimeterSpacing=6;targetPerimeterSpacing=6;jumpStyle=none;shadow=0;endFill=0;dashed=1;" parent="1" source="WCmOqJApZtAGnSyVygM3-140" target="WCmOqJApZtAGnSyVygM3-141" edge="1">
          <mxGeometry relative="1" as="geometry">
            <Array as="points">
              <mxPoint x="460" y="640" />
              <mxPoint x="460" y="640" />
            </Array>
          </mxGeometry>
        </mxCell>
        <mxCell id="WCmOqJApZtAGnSyVygM3-140" value="UnsubscribePacket" style="rounded=1;arcSize=10;whiteSpace=wrap;html=1;align=center;fillColor=#008a00;fontColor=#ffffff;strokeColor=#005700;shape=ellipse;perimeter=ellipsePerimeter;" parent="1" vertex="1">
          <mxGeometry x="425" y="730" width="130" height="30" as="geometry" />
        </mxCell>
        <mxCell id="WCmOqJApZtAGnSyVygM3-164" style="edgeStyle=orthogonalEdgeStyle;rounded=0;orthogonalLoop=1;jettySize=auto;html=1;strokeColor=default;align=center;verticalAlign=middle;fontFamily=Helvetica;fontSize=11;fontColor=default;labelBackgroundColor=default;endArrow=block;sourcePerimeterSpacing=6;targetPerimeterSpacing=6;endFill=0;dashed=1;" parent="1" source="WCmOqJApZtAGnSyVygM3-139" target="WCmOqJApZtAGnSyVygM3-141" edge="1">
          <mxGeometry relative="1" as="geometry">
            <Array as="points">
              <mxPoint x="490" y="590" />
              <mxPoint x="490" y="590" />
            </Array>
          </mxGeometry>
        </mxCell>
        <mxCell id="WCmOqJApZtAGnSyVygM3-139" value="SubscribePacket" style="rounded=1;arcSize=10;whiteSpace=wrap;html=1;align=center;fillColor=#008a00;fontColor=#ffffff;strokeColor=#005700;shape=ellipse;perimeter=ellipsePerimeter;" parent="1" vertex="1">
          <mxGeometry x="435" y="650" width="110" height="30" as="geometry" />
        </mxCell>
        <mxCell id="WCmOqJApZtAGnSyVygM3-165" style="edgeStyle=orthogonalEdgeStyle;rounded=0;orthogonalLoop=1;jettySize=auto;html=1;strokeColor=default;align=center;verticalAlign=middle;fontFamily=Helvetica;fontSize=11;fontColor=default;labelBackgroundColor=default;endArrow=block;sourcePerimeterSpacing=6;targetPerimeterSpacing=6;endFill=0;dashed=1;" parent="1" source="WCmOqJApZtAGnSyVygM3-138" target="WCmOqJApZtAGnSyVygM3-141" edge="1">
          <mxGeometry relative="1" as="geometry">
            <Array as="points">
              <mxPoint x="520" y="550" />
              <mxPoint x="520" y="550" />
            </Array>
          </mxGeometry>
        </mxCell>
        <mxCell id="WCmOqJApZtAGnSyVygM3-138" value="PublishPacket" style="rounded=1;arcSize=10;whiteSpace=wrap;html=1;align=center;fillColor=#008a00;fontColor=#ffffff;strokeColor=#005700;shape=ellipse;perimeter=ellipsePerimeter;" parent="1" vertex="1">
          <mxGeometry x="440" y="570" width="100" height="30" as="geometry" />
        </mxCell>
        <mxCell id="WCmOqJApZtAGnSyVygM3-238" value="" style="edgeStyle=orthogonalEdgeStyle;rounded=0;orthogonalLoop=1;jettySize=auto;html=1;strokeColor=default;align=center;verticalAlign=middle;fontFamily=Helvetica;fontSize=11;fontColor=default;labelBackgroundColor=default;endArrow=block;endFill=1;sourcePerimeterSpacing=6;targetPerimeterSpacing=6;curved=0;fillColor=default;startArrow=block;startFill=1;" parent="1" source="WCmOqJApZtAGnSyVygM3-181" target="WCmOqJApZtAGnSyVygM3-196" edge="1">
          <mxGeometry relative="1" as="geometry" />
        </mxCell>
        <mxCell id="Pp_cTzMIZjNAPxuEeKP_-9" value="owl:equivalentClass" style="edgeLabel;html=1;align=center;verticalAlign=middle;resizable=0;points=[];rounded=0;dashed=1;strokeColor=default;fontFamily=Helvetica;fontSize=11;fontColor=default;labelBackgroundColor=default;fillColor=default;" parent="WCmOqJApZtAGnSyVygM3-238" vertex="1" connectable="0">
          <mxGeometry x="-0.0278" y="-2" relative="1" as="geometry">
            <mxPoint x="2" as="offset" />
          </mxGeometry>
        </mxCell>
        <mxCell id="WCmOqJApZtAGnSyVygM3-247" style="edgeStyle=orthogonalEdgeStyle;rounded=0;orthogonalLoop=1;jettySize=auto;html=1;strokeColor=default;align=center;verticalAlign=middle;fontFamily=Helvetica;fontSize=11;fontColor=default;labelBackgroundColor=default;endArrow=block;sourcePerimeterSpacing=6;targetPerimeterSpacing=6;endFill=0;dashed=1;" parent="1" source="WCmOqJApZtAGnSyVygM3-181" target="WCmOqJApZtAGnSyVygM3-187" edge="1">
          <mxGeometry relative="1" as="geometry">
            <Array as="points">
              <mxPoint x="400" y="2905" />
              <mxPoint x="400" y="2565" />
            </Array>
          </mxGeometry>
        </mxCell>
        <mxCell id="WCmOqJApZtAGnSyVygM3-181" value="SUBSCRIBE" style="rounded=1;arcSize=10;whiteSpace=wrap;html=1;align=center;fillColor=#1ba1e2;fontColor=#ffffff;strokeColor=#006EAF;shape=ellipse;perimeter=ellipsePerimeter;" parent="1" vertex="1">
          <mxGeometry x="629.86" y="2890" width="90" height="30" as="geometry" />
        </mxCell>
        <mxCell id="WCmOqJApZtAGnSyVygM3-239" value="" style="edgeStyle=orthogonalEdgeStyle;rounded=0;orthogonalLoop=1;jettySize=auto;html=1;strokeColor=default;align=center;verticalAlign=middle;fontFamily=Helvetica;fontSize=11;fontColor=default;labelBackgroundColor=default;endArrow=block;endFill=1;sourcePerimeterSpacing=6;targetPerimeterSpacing=6;curved=0;fillColor=default;startArrow=block;startFill=1;" parent="1" source="WCmOqJApZtAGnSyVygM3-185" target="WCmOqJApZtAGnSyVygM3-200" edge="1">
          <mxGeometry relative="1" as="geometry" />
        </mxCell>
        <mxCell id="Pp_cTzMIZjNAPxuEeKP_-10" value="owl:equivalentClass" style="edgeLabel;html=1;align=center;verticalAlign=middle;resizable=0;points=[];rounded=0;dashed=1;strokeColor=default;fontFamily=Helvetica;fontSize=11;fontColor=default;labelBackgroundColor=default;fillColor=default;" parent="WCmOqJApZtAGnSyVygM3-239" vertex="1" connectable="0">
          <mxGeometry x="0.6241" relative="1" as="geometry">
            <mxPoint y="-12" as="offset" />
          </mxGeometry>
        </mxCell>
        <mxCell id="WCmOqJApZtAGnSyVygM3-248" style="edgeStyle=orthogonalEdgeStyle;rounded=0;orthogonalLoop=1;jettySize=auto;html=1;strokeColor=default;align=center;verticalAlign=middle;fontFamily=Helvetica;fontSize=11;fontColor=default;labelBackgroundColor=default;endArrow=block;sourcePerimeterSpacing=6;targetPerimeterSpacing=6;endFill=0;dashed=1;" parent="1" source="WCmOqJApZtAGnSyVygM3-185" target="WCmOqJApZtAGnSyVygM3-187" edge="1">
          <mxGeometry relative="1" as="geometry">
            <Array as="points">
              <mxPoint x="380" y="3205" />
              <mxPoint x="380" y="2550" />
            </Array>
          </mxGeometry>
        </mxCell>
        <mxCell id="WCmOqJApZtAGnSyVygM3-185" value="UNSUBSCRIBE" style="rounded=1;arcSize=10;whiteSpace=wrap;html=1;align=center;fillColor=#1ba1e2;fontColor=#ffffff;strokeColor=#006EAF;shape=ellipse;perimeter=ellipsePerimeter;" parent="1" vertex="1">
          <mxGeometry x="625" y="3190" width="110" height="30" as="geometry" />
        </mxCell>
        <mxCell id="WCmOqJApZtAGnSyVygM3-186" value="" style="edgeStyle=orthogonalEdgeStyle;rounded=0;orthogonalLoop=1;jettySize=auto;html=1;strokeColor=default;align=center;verticalAlign=middle;fontFamily=Helvetica;fontSize=11;fontColor=default;labelBackgroundColor=default;endArrow=block;endFill=1;sourcePerimeterSpacing=6;targetPerimeterSpacing=6;curved=0;fillColor=default;startArrow=block;startFill=1;" parent="1" source="WCmOqJApZtAGnSyVygM3-187" target="WCmOqJApZtAGnSyVygM3-208" edge="1">
          <mxGeometry relative="1" as="geometry" />
        </mxCell>
        <mxCell id="Pp_cTzMIZjNAPxuEeKP_-7" value="&lt;span style=&quot;color: rgba(0, 0, 0, 0); font-family: monospace; font-size: 0px; text-align: start; background-color: rgb(27, 29, 30);&quot;&gt;%3CmxGraphModel%3E%3Croot%3E%3CmxCell%20id%3D%220%22%2F%3E%3CmxCell%20id%3D%221%22%20parent%3D%220%22%2F%3E%3CmxCell%20id%3D%222%22%20value%3D%22owl%3AequivalentClass%22%20style%3D%22edgeStyle%3DorthogonalEdgeStyle%3Brounded%3D0%3BorthogonalLoop%3D1%3BjettySize%3Dauto%3Bhtml%3D1%3BstartArrow%3Dclassic%3BstartFill%3D1%3Bdashed%3D1%3B%22%20edge%3D%221%22%20parent%3D%221%22%3E%3CmxGeometry%20relative%3D%221%22%20as%3D%22geometry%22%3E%3CmxPoint%20x%3D%22675%22%20y%3D%222670%22%20as%3D%22sourcePoint%22%2F%3E%3CmxPoint%20x%3D%22675%22%20y%3D%222630%22%20as%3D%22targetPoint%22%2F%3E%3C%2FmxGeometry%3E%3C%2FmxCell%3E%3C%2Froot%3E%3C%2FmxGraphModel%3E&lt;/span&gt;" style="edgeLabel;html=1;align=center;verticalAlign=middle;resizable=0;points=[];rounded=0;dashed=1;strokeColor=default;fontFamily=Helvetica;fontSize=11;fontColor=default;labelBackgroundColor=default;" parent="WCmOqJApZtAGnSyVygM3-186" vertex="1" connectable="0">
          <mxGeometry x="-0.0426" y="1" relative="1" as="geometry">
            <mxPoint y="-3" as="offset" />
          </mxGeometry>
        </mxCell>
        <mxCell id="Pp_cTzMIZjNAPxuEeKP_-8" value="owl:equivalentClass" style="edgeLabel;html=1;align=center;verticalAlign=middle;resizable=0;points=[];rounded=0;dashed=1;strokeColor=default;fontFamily=Helvetica;fontSize=11;fontColor=default;labelBackgroundColor=default;" parent="WCmOqJApZtAGnSyVygM3-186" vertex="1" connectable="0">
          <mxGeometry x="0.779" y="1" relative="1" as="geometry">
            <mxPoint x="2" y="14" as="offset" />
          </mxGeometry>
        </mxCell>
        <mxCell id="WCmOqJApZtAGnSyVygM3-187" value="ControlPacket" style="rounded=1;arcSize=10;whiteSpace=wrap;html=1;align=center;fillColor=#1ba1e2;fontColor=#ffffff;strokeColor=#006EAF;shape=ellipse;perimeter=ellipsePerimeter;" parent="1" vertex="1">
          <mxGeometry x="624.86" y="2550" width="100" height="30" as="geometry" />
        </mxCell>
        <mxCell id="WCmOqJApZtAGnSyVygM3-235" style="edgeStyle=orthogonalEdgeStyle;rounded=0;orthogonalLoop=1;jettySize=auto;html=1;strokeColor=default;align=center;verticalAlign=middle;fontFamily=Helvetica;fontSize=11;fontColor=default;labelBackgroundColor=default;endArrow=block;sourcePerimeterSpacing=6;targetPerimeterSpacing=6;endFill=1;" parent="1" source="WCmOqJApZtAGnSyVygM3-192" target="WCmOqJApZtAGnSyVygM3-228" edge="1">
          <mxGeometry relative="1" as="geometry">
            <Array as="points">
              <mxPoint x="674.86" y="2800" />
              <mxPoint x="674.86" y="2800" />
            </Array>
          </mxGeometry>
        </mxCell>
        <mxCell id="WCmOqJApZtAGnSyVygM3-263" value="mqtt:isPublishVariableHeaderOf" style="edgeLabel;html=1;align=center;verticalAlign=middle;resizable=0;points=[];" parent="WCmOqJApZtAGnSyVygM3-235" vertex="1" connectable="0">
          <mxGeometry x="-0.3386" y="1" relative="1" as="geometry">
            <mxPoint x="4" y="8" as="offset" />
          </mxGeometry>
        </mxCell>
        <mxCell id="WCmOqJApZtAGnSyVygM3-264" value="mqtt:hasPublishVariableHeader" style="edgeLabel;html=1;align=center;verticalAlign=middle;resizable=0;points=[];" parent="WCmOqJApZtAGnSyVygM3-235" vertex="1" connectable="0">
          <mxGeometry x="0.4877" y="-1" relative="1" as="geometry">
            <mxPoint x="6" y="4" as="offset" />
          </mxGeometry>
        </mxCell>
        <mxCell id="WCmOqJApZtAGnSyVygM3-236" style="edgeStyle=orthogonalEdgeStyle;rounded=0;orthogonalLoop=1;jettySize=auto;html=1;strokeColor=default;align=center;verticalAlign=middle;fontFamily=Helvetica;fontSize=11;fontColor=default;labelBackgroundColor=default;endArrow=block;sourcePerimeterSpacing=6;targetPerimeterSpacing=6;endFill=1;" parent="1" source="WCmOqJApZtAGnSyVygM3-192" target="WCmOqJApZtAGnSyVygM3-226" edge="1">
          <mxGeometry relative="1" as="geometry">
            <Array as="points">
              <mxPoint x="639.86" y="2720" />
              <mxPoint x="489.86" y="2720" />
            </Array>
          </mxGeometry>
        </mxCell>
        <mxCell id="WCmOqJApZtAGnSyVygM3-261" value="mqtt:hasPublishFixedHeader" style="edgeLabel;html=1;align=center;verticalAlign=middle;resizable=0;points=[];" parent="WCmOqJApZtAGnSyVygM3-236" vertex="1" connectable="0">
          <mxGeometry x="0.7319" y="4" relative="1" as="geometry">
            <mxPoint y="11" as="offset" />
          </mxGeometry>
        </mxCell>
        <mxCell id="WCmOqJApZtAGnSyVygM3-262" value="mqtt:isPublishFixedHeaderOf" style="edgeLabel;html=1;align=center;verticalAlign=middle;resizable=0;points=[];" parent="WCmOqJApZtAGnSyVygM3-236" vertex="1" connectable="0">
          <mxGeometry x="0.4576" y="-1" relative="1" as="geometry">
            <mxPoint y="6" as="offset" />
          </mxGeometry>
        </mxCell>
        <mxCell id="WCmOqJApZtAGnSyVygM3-237" style="edgeStyle=orthogonalEdgeStyle;rounded=0;orthogonalLoop=1;jettySize=auto;html=1;strokeColor=default;align=center;verticalAlign=middle;fontFamily=Helvetica;fontSize=11;fontColor=default;labelBackgroundColor=default;endArrow=block;sourcePerimeterSpacing=6;targetPerimeterSpacing=6;endFill=1;" parent="1" source="WCmOqJApZtAGnSyVygM3-192" target="WCmOqJApZtAGnSyVygM3-230" edge="1">
          <mxGeometry relative="1" as="geometry">
            <Array as="points">
              <mxPoint x="709.86" y="2720" />
              <mxPoint x="839.86" y="2720" />
            </Array>
          </mxGeometry>
        </mxCell>
        <mxCell id="WCmOqJApZtAGnSyVygM3-265" value="mqtt:isPublishPayloadOf" style="edgeLabel;html=1;align=center;verticalAlign=middle;resizable=0;points=[];" parent="WCmOqJApZtAGnSyVygM3-237" vertex="1" connectable="0">
          <mxGeometry x="0.3926" y="-1" relative="1" as="geometry">
            <mxPoint y="9" as="offset" />
          </mxGeometry>
        </mxCell>
        <mxCell id="WCmOqJApZtAGnSyVygM3-266" value="mqtt:hasPublishPayload" style="edgeLabel;html=1;align=center;verticalAlign=middle;resizable=0;points=[];" parent="WCmOqJApZtAGnSyVygM3-237" vertex="1" connectable="0">
          <mxGeometry x="0.7029" y="2" relative="1" as="geometry">
            <mxPoint y="12" as="offset" />
          </mxGeometry>
        </mxCell>
        <mxCell id="WCmOqJApZtAGnSyVygM3-249" style="edgeStyle=orthogonalEdgeStyle;rounded=0;orthogonalLoop=1;jettySize=auto;html=1;strokeColor=default;align=center;verticalAlign=middle;fontFamily=Helvetica;fontSize=11;fontColor=default;labelBackgroundColor=default;endArrow=block;sourcePerimeterSpacing=6;targetPerimeterSpacing=6;jumpStyle=arc;endFill=0;dashed=1;jumpSize=10;" parent="1" source="WCmOqJApZtAGnSyVygM3-192" target="WCmOqJApZtAGnSyVygM3-208" edge="1">
          <mxGeometry relative="1" as="geometry">
            <Array as="points">
              <mxPoint x="360" y="2685" />
              <mxPoint x="360" y="2500" />
            </Array>
          </mxGeometry>
        </mxCell>
        <mxCell id="Pp_cTzMIZjNAPxuEeKP_-6" value="owl:equivalentClass" style="edgeStyle=orthogonalEdgeStyle;rounded=0;orthogonalLoop=1;jettySize=auto;html=1;startArrow=block;startFill=1;strokeColor=default;align=center;verticalAlign=middle;fontFamily=Helvetica;fontSize=11;fontColor=default;labelBackgroundColor=default;endArrow=block;sourcePerimeterSpacing=6;targetPerimeterSpacing=6;endFill=1;" parent="1" edge="1">
          <mxGeometry relative="1" as="geometry">
            <mxPoint x="674.8600000000001" y="2664" as="sourcePoint" />
            <mxPoint x="674.8600000000001" y="2626" as="targetPoint" />
          </mxGeometry>
        </mxCell>
        <mxCell id="WCmOqJApZtAGnSyVygM3-192" value="PublishPacket" style="rounded=1;arcSize=10;whiteSpace=wrap;html=1;align=center;fillColor=#008a00;fontColor=#ffffff;strokeColor=#005700;shape=ellipse;perimeter=ellipsePerimeter;" parent="1" vertex="1">
          <mxGeometry x="624.86" y="2670" width="100" height="30" as="geometry" />
        </mxCell>
        <mxCell id="WCmOqJApZtAGnSyVygM3-240" style="edgeStyle=orthogonalEdgeStyle;rounded=0;orthogonalLoop=1;jettySize=auto;html=1;strokeColor=default;align=center;verticalAlign=middle;fontFamily=Helvetica;fontSize=11;fontColor=default;labelBackgroundColor=default;endArrow=block;sourcePerimeterSpacing=6;targetPerimeterSpacing=6;endFill=1;" parent="1" source="WCmOqJApZtAGnSyVygM3-196" target="WCmOqJApZtAGnSyVygM3-216" edge="1">
          <mxGeometry relative="1" as="geometry" />
        </mxCell>
        <mxCell id="WCmOqJApZtAGnSyVygM3-271" value="mqtt:isSubscribeVariableHeaderOf" style="edgeLabel;html=1;align=center;verticalAlign=middle;resizable=0;points=[];" parent="WCmOqJApZtAGnSyVygM3-240" vertex="1" connectable="0">
          <mxGeometry x="-0.3813" y="-3" relative="1" as="geometry">
            <mxPoint x="8" y="11" as="offset" />
          </mxGeometry>
        </mxCell>
        <mxCell id="WCmOqJApZtAGnSyVygM3-272" value="mqtt:hasSubscribeVariableHeader" style="edgeLabel;html=1;align=center;verticalAlign=middle;resizable=0;points=[];" parent="WCmOqJApZtAGnSyVygM3-240" vertex="1" connectable="0">
          <mxGeometry x="0.4307" y="2" relative="1" as="geometry">
            <mxPoint x="-2" y="7" as="offset" />
          </mxGeometry>
        </mxCell>
        <mxCell id="WCmOqJApZtAGnSyVygM3-241" style="edgeStyle=orthogonalEdgeStyle;rounded=0;orthogonalLoop=1;jettySize=auto;html=1;strokeColor=default;align=center;verticalAlign=middle;fontFamily=Helvetica;fontSize=11;fontColor=default;labelBackgroundColor=default;endArrow=block;sourcePerimeterSpacing=6;targetPerimeterSpacing=6;endFill=1;" parent="1" source="WCmOqJApZtAGnSyVygM3-196" target="WCmOqJApZtAGnSyVygM3-214" edge="1">
          <mxGeometry relative="1" as="geometry">
            <Array as="points">
              <mxPoint x="639.86" y="3020" />
              <mxPoint x="479.86" y="3020" />
            </Array>
          </mxGeometry>
        </mxCell>
        <mxCell id="WCmOqJApZtAGnSyVygM3-269" value="mqtt:isSubscribeFixedHeaderOf" style="edgeLabel;html=1;align=center;verticalAlign=middle;resizable=0;points=[];" parent="WCmOqJApZtAGnSyVygM3-241" vertex="1" connectable="0">
          <mxGeometry x="0.4434" relative="1" as="geometry">
            <mxPoint x="5" y="11" as="offset" />
          </mxGeometry>
        </mxCell>
        <mxCell id="WCmOqJApZtAGnSyVygM3-270" value="mqtt:hasSubscribeFixedHeader" style="edgeLabel;html=1;align=center;verticalAlign=middle;resizable=0;points=[];" parent="WCmOqJApZtAGnSyVygM3-241" vertex="1" connectable="0">
          <mxGeometry x="0.7763" y="-3" relative="1" as="geometry">
            <mxPoint x="8" y="6" as="offset" />
          </mxGeometry>
        </mxCell>
        <mxCell id="WCmOqJApZtAGnSyVygM3-242" style="edgeStyle=orthogonalEdgeStyle;rounded=0;orthogonalLoop=1;jettySize=auto;html=1;strokeColor=default;align=center;verticalAlign=middle;fontFamily=Helvetica;fontSize=11;fontColor=default;labelBackgroundColor=default;endArrow=block;sourcePerimeterSpacing=6;targetPerimeterSpacing=6;endFill=1;" parent="1" source="WCmOqJApZtAGnSyVygM3-196" target="WCmOqJApZtAGnSyVygM3-218" edge="1">
          <mxGeometry relative="1" as="geometry">
            <Array as="points">
              <mxPoint x="709.86" y="3020" />
              <mxPoint x="854.86" y="3020" />
            </Array>
          </mxGeometry>
        </mxCell>
        <mxCell id="WCmOqJApZtAGnSyVygM3-273" value="mqtt:isSubscribePayloadOf" style="edgeLabel;html=1;align=center;verticalAlign=middle;resizable=0;points=[];" parent="WCmOqJApZtAGnSyVygM3-242" vertex="1" connectable="0">
          <mxGeometry x="0.4043" relative="1" as="geometry">
            <mxPoint y="11" as="offset" />
          </mxGeometry>
        </mxCell>
        <mxCell id="WCmOqJApZtAGnSyVygM3-274" value="mqtt:hasSubscribePayload" style="edgeLabel;html=1;align=center;verticalAlign=middle;resizable=0;points=[];" parent="WCmOqJApZtAGnSyVygM3-242" vertex="1" connectable="0">
          <mxGeometry x="0.836" y="-1" relative="1" as="geometry">
            <mxPoint x="1" y="-3" as="offset" />
          </mxGeometry>
        </mxCell>
        <mxCell id="WCmOqJApZtAGnSyVygM3-250" style="edgeStyle=orthogonalEdgeStyle;rounded=0;orthogonalLoop=1;jettySize=auto;html=1;strokeColor=default;align=center;verticalAlign=middle;fontFamily=Helvetica;fontSize=11;fontColor=default;labelBackgroundColor=default;endArrow=block;sourcePerimeterSpacing=6;targetPerimeterSpacing=6;jumpStyle=arc;endFill=0;dashed=1;" parent="1" source="WCmOqJApZtAGnSyVygM3-196" target="WCmOqJApZtAGnSyVygM3-208" edge="1">
          <mxGeometry relative="1" as="geometry">
            <Array as="points">
              <mxPoint x="340" y="2985" />
              <mxPoint x="340" y="2485" />
            </Array>
          </mxGeometry>
        </mxCell>
        <mxCell id="WCmOqJApZtAGnSyVygM3-196" value="SubscribePacket" style="rounded=1;arcSize=10;whiteSpace=wrap;html=1;align=center;fillColor=#008a00;fontColor=#ffffff;strokeColor=#005700;shape=ellipse;perimeter=ellipsePerimeter;" parent="1" vertex="1">
          <mxGeometry x="620" y="2970" width="110" height="30" as="geometry" />
        </mxCell>
        <mxCell id="WCmOqJApZtAGnSyVygM3-243" style="edgeStyle=orthogonalEdgeStyle;rounded=0;orthogonalLoop=1;jettySize=auto;html=1;strokeColor=default;align=center;verticalAlign=middle;fontFamily=Helvetica;fontSize=11;fontColor=default;labelBackgroundColor=default;endArrow=block;sourcePerimeterSpacing=6;targetPerimeterSpacing=6;endFill=1;" parent="1" source="WCmOqJApZtAGnSyVygM3-200" target="WCmOqJApZtAGnSyVygM3-222" edge="1">
          <mxGeometry relative="1" as="geometry" />
        </mxCell>
        <mxCell id="WCmOqJApZtAGnSyVygM3-277" value="mqtt:isUnsubscribeVariableHeaderOf" style="edgeLabel;html=1;align=center;verticalAlign=middle;resizable=0;points=[];" parent="WCmOqJApZtAGnSyVygM3-243" vertex="1" connectable="0">
          <mxGeometry x="-0.3433" y="-3" relative="1" as="geometry">
            <mxPoint x="3" y="9" as="offset" />
          </mxGeometry>
        </mxCell>
        <mxCell id="WCmOqJApZtAGnSyVygM3-278" value="mqtt:hasUnsubscribeVariableHeader" style="edgeLabel;html=1;align=center;verticalAlign=middle;resizable=0;points=[];" parent="WCmOqJApZtAGnSyVygM3-243" vertex="1" connectable="0">
          <mxGeometry x="0.5399" y="4" relative="1" as="geometry">
            <mxPoint as="offset" />
          </mxGeometry>
        </mxCell>
        <mxCell id="WCmOqJApZtAGnSyVygM3-244" style="edgeStyle=orthogonalEdgeStyle;rounded=0;orthogonalLoop=1;jettySize=auto;html=1;strokeColor=default;align=center;verticalAlign=middle;fontFamily=Helvetica;fontSize=11;fontColor=default;labelBackgroundColor=default;endArrow=block;sourcePerimeterSpacing=6;targetPerimeterSpacing=6;endFill=1;" parent="1" source="WCmOqJApZtAGnSyVygM3-200" target="WCmOqJApZtAGnSyVygM3-220" edge="1">
          <mxGeometry relative="1" as="geometry">
            <Array as="points">
              <mxPoint x="639.86" y="3320" />
              <mxPoint x="474.86" y="3320" />
            </Array>
          </mxGeometry>
        </mxCell>
        <mxCell id="WCmOqJApZtAGnSyVygM3-275" value="mqtt:isUnsubscribeFixedHeaderOf" style="edgeLabel;html=1;align=center;verticalAlign=middle;resizable=0;points=[];" parent="WCmOqJApZtAGnSyVygM3-244" vertex="1" connectable="0">
          <mxGeometry x="0.4686" relative="1" as="geometry">
            <mxPoint y="8" as="offset" />
          </mxGeometry>
        </mxCell>
        <mxCell id="WCmOqJApZtAGnSyVygM3-276" value="mqtt:hasUnsubscribeFixedHeader" style="edgeLabel;html=1;align=center;verticalAlign=middle;resizable=0;points=[];" parent="WCmOqJApZtAGnSyVygM3-244" vertex="1" connectable="0">
          <mxGeometry x="0.8123" y="4" relative="1" as="geometry">
            <mxPoint as="offset" />
          </mxGeometry>
        </mxCell>
        <mxCell id="WCmOqJApZtAGnSyVygM3-245" style="edgeStyle=orthogonalEdgeStyle;rounded=0;orthogonalLoop=1;jettySize=auto;html=1;strokeColor=default;align=center;verticalAlign=middle;fontFamily=Helvetica;fontSize=11;fontColor=default;labelBackgroundColor=default;endArrow=block;sourcePerimeterSpacing=6;targetPerimeterSpacing=6;endFill=1;" parent="1" source="WCmOqJApZtAGnSyVygM3-200" target="WCmOqJApZtAGnSyVygM3-224" edge="1">
          <mxGeometry relative="1" as="geometry">
            <Array as="points">
              <mxPoint x="719.86" y="3320" />
              <mxPoint x="869.86" y="3320" />
            </Array>
          </mxGeometry>
        </mxCell>
        <mxCell id="WCmOqJApZtAGnSyVygM3-279" value="mqtt:isUnsubscribePayloadOf" style="edgeLabel;html=1;align=center;verticalAlign=middle;resizable=0;points=[];" parent="WCmOqJApZtAGnSyVygM3-245" vertex="1" connectable="0">
          <mxGeometry x="0.4556" relative="1" as="geometry">
            <mxPoint x="5" y="6" as="offset" />
          </mxGeometry>
        </mxCell>
        <mxCell id="WCmOqJApZtAGnSyVygM3-280" value="mqtt:hasUnsubscribePayload" style="edgeLabel;html=1;align=center;verticalAlign=middle;resizable=0;points=[];" parent="WCmOqJApZtAGnSyVygM3-245" vertex="1" connectable="0">
          <mxGeometry x="0.7716" relative="1" as="geometry">
            <mxPoint x="5" y="6" as="offset" />
          </mxGeometry>
        </mxCell>
        <mxCell id="WCmOqJApZtAGnSyVygM3-251" style="edgeStyle=orthogonalEdgeStyle;rounded=0;orthogonalLoop=1;jettySize=auto;html=1;strokeColor=default;align=center;verticalAlign=middle;fontFamily=Helvetica;fontSize=11;fontColor=default;labelBackgroundColor=default;endArrow=block;sourcePerimeterSpacing=6;targetPerimeterSpacing=6;endFill=0;dashed=1;" parent="1" source="WCmOqJApZtAGnSyVygM3-200" target="WCmOqJApZtAGnSyVygM3-208" edge="1">
          <mxGeometry relative="1" as="geometry">
            <Array as="points">
              <mxPoint x="320" y="3285" />
              <mxPoint x="320" y="2470" />
            </Array>
          </mxGeometry>
        </mxCell>
        <mxCell id="WCmOqJApZtAGnSyVygM3-200" value="UnsubscribePacket" style="rounded=1;arcSize=10;whiteSpace=wrap;html=1;align=center;fillColor=#008a00;fontColor=#ffffff;strokeColor=#005700;shape=ellipse;perimeter=ellipsePerimeter;" parent="1" vertex="1">
          <mxGeometry x="614.86" y="3270" width="130" height="30" as="geometry" />
        </mxCell>
        <mxCell id="WCmOqJApZtAGnSyVygM3-201" value="mqtt:&lt;br&gt;hasFixed&lt;br&gt;Header" style="edgeStyle=orthogonalEdgeStyle;rounded=0;orthogonalLoop=1;jettySize=auto;html=1;strokeColor=default;align=center;verticalAlign=middle;fontFamily=Helvetica;fontSize=11;fontColor=default;labelBackgroundColor=default;endArrow=block;sourcePerimeterSpacing=6;targetPerimeterSpacing=6;endFill=1;" parent="1" source="WCmOqJApZtAGnSyVygM3-208" target="WCmOqJApZtAGnSyVygM3-209" edge="1">
          <mxGeometry x="0.9175" relative="1" as="geometry">
            <Array as="points">
              <mxPoint x="800" y="2470" />
              <mxPoint x="800" y="2580" />
              <mxPoint x="1340" y="2580" />
              <mxPoint x="1340" y="3435" />
            </Array>
            <mxPoint as="offset" />
          </mxGeometry>
        </mxCell>
        <mxCell id="WCmOqJApZtAGnSyVygM3-202" value="mqtt:isFixedHeaderOf" style="edgeLabel;html=1;align=center;verticalAlign=middle;resizable=0;points=[];rounded=0;dashed=1;strokeColor=default;fontFamily=Helvetica;fontSize=11;fontColor=default;labelBackgroundColor=default;" parent="WCmOqJApZtAGnSyVygM3-201" vertex="1" connectable="0">
          <mxGeometry x="0.1228" y="2" relative="1" as="geometry">
            <mxPoint x="-472" y="-227" as="offset" />
          </mxGeometry>
        </mxCell>
        <mxCell id="WCmOqJApZtAGnSyVygM3-203" value="mqtt:isVariableHeaderOf" style="edgeStyle=orthogonalEdgeStyle;rounded=0;orthogonalLoop=1;jettySize=auto;html=1;strokeColor=default;align=center;verticalAlign=middle;fontFamily=Helvetica;fontSize=11;fontColor=default;labelBackgroundColor=default;endArrow=block;sourcePerimeterSpacing=6;targetPerimeterSpacing=6;endFill=1;" parent="1" source="WCmOqJApZtAGnSyVygM3-208" target="WCmOqJApZtAGnSyVygM3-210" edge="1">
          <mxGeometry x="-0.5795" relative="1" as="geometry">
            <mxPoint as="offset" />
            <Array as="points">
              <mxPoint x="780" y="2485" />
              <mxPoint x="780" y="2620" />
              <mxPoint x="1300" y="2620" />
              <mxPoint x="1300" y="3135" />
            </Array>
          </mxGeometry>
        </mxCell>
        <mxCell id="WCmOqJApZtAGnSyVygM3-204" value="mqtt:&lt;br&gt;hasVariable&lt;br&gt;Header" style="edgeLabel;html=1;align=center;verticalAlign=middle;resizable=0;points=[];rounded=0;dashed=1;strokeColor=default;fontFamily=Helvetica;fontSize=11;fontColor=default;labelBackgroundColor=default;" parent="WCmOqJApZtAGnSyVygM3-203" vertex="1" connectable="0">
          <mxGeometry x="0.33" y="-1" relative="1" as="geometry">
            <mxPoint x="-37" y="351" as="offset" />
          </mxGeometry>
        </mxCell>
        <mxCell id="WCmOqJApZtAGnSyVygM3-205" style="edgeStyle=orthogonalEdgeStyle;rounded=0;orthogonalLoop=1;jettySize=auto;html=1;strokeColor=default;align=center;verticalAlign=middle;fontFamily=Helvetica;fontSize=11;fontColor=default;labelBackgroundColor=default;endArrow=block;sourcePerimeterSpacing=6;targetPerimeterSpacing=6;endFill=1;" parent="1" source="WCmOqJApZtAGnSyVygM3-208" target="WCmOqJApZtAGnSyVygM3-211" edge="1">
          <mxGeometry relative="1" as="geometry">
            <Array as="points">
              <mxPoint x="760" y="2500" />
              <mxPoint x="760" y="2660" />
              <mxPoint x="1250" y="2660" />
              <mxPoint x="1250" y="2835" />
            </Array>
          </mxGeometry>
        </mxCell>
        <mxCell id="WCmOqJApZtAGnSyVygM3-206" value="mqtt:has&lt;br&gt;Payload" style="edgeLabel;html=1;align=center;verticalAlign=middle;resizable=0;points=[];rounded=0;dashed=1;strokeColor=default;fontFamily=Helvetica;fontSize=11;fontColor=default;labelBackgroundColor=default;" parent="WCmOqJApZtAGnSyVygM3-205" vertex="1" connectable="0">
          <mxGeometry x="-0.1462" y="3" relative="1" as="geometry">
            <mxPoint x="305" y="123" as="offset" />
          </mxGeometry>
        </mxCell>
        <mxCell id="WCmOqJApZtAGnSyVygM3-207" value="mqtt:isPayloadOf" style="edgeLabel;html=1;align=center;verticalAlign=middle;resizable=0;points=[];rounded=0;dashed=1;strokeColor=default;fontFamily=Helvetica;fontSize=11;fontColor=default;labelBackgroundColor=default;" parent="WCmOqJApZtAGnSyVygM3-205" vertex="1" connectable="0">
          <mxGeometry x="-0.4581" y="3" relative="1" as="geometry">
            <mxPoint x="71" y="3" as="offset" />
          </mxGeometry>
        </mxCell>
        <mxCell id="WCmOqJApZtAGnSyVygM3-208" value="ControlPacket" style="rounded=1;arcSize=10;whiteSpace=wrap;html=1;align=center;fillColor=#008a00;fontColor=#ffffff;strokeColor=#005700;shape=ellipse;perimeter=ellipsePerimeter;" parent="1" vertex="1">
          <mxGeometry x="625" y="2470" width="100" height="30" as="geometry" />
        </mxCell>
        <mxCell id="WCmOqJApZtAGnSyVygM3-209" value="FixedHeader" style="rounded=1;arcSize=10;whiteSpace=wrap;html=1;align=center;fillColor=#008a00;fontColor=#ffffff;strokeColor=#005700;shape=ellipse;perimeter=ellipsePerimeter;" parent="1" vertex="1">
          <mxGeometry x="1079.8600000000001" y="3420" width="130" height="30" as="geometry" />
        </mxCell>
        <mxCell id="WCmOqJApZtAGnSyVygM3-398" style="edgeStyle=orthogonalEdgeStyle;rounded=0;orthogonalLoop=1;jettySize=auto;html=1;strokeColor=default;align=center;verticalAlign=middle;fontFamily=Helvetica;fontSize=11;fontColor=default;labelBackgroundColor=default;endArrow=block;sourcePerimeterSpacing=6;targetPerimeterSpacing=6;endFill=1;" parent="1" source="WCmOqJApZtAGnSyVygM3-210" target="WCmOqJApZtAGnSyVygM3-397" edge="1">
          <mxGeometry relative="1" as="geometry" />
        </mxCell>
        <mxCell id="WCmOqJApZtAGnSyVygM3-399" value="mqtt:hasPacketIdentifier" style="edgeLabel;html=1;align=center;verticalAlign=middle;resizable=0;points=[];rounded=0;dashed=1;strokeColor=default;fontFamily=Helvetica;fontSize=11;fontColor=default;labelBackgroundColor=default;" parent="WCmOqJApZtAGnSyVygM3-398" vertex="1" connectable="0">
          <mxGeometry x="-0.1618" y="-1" relative="1" as="geometry">
            <mxPoint as="offset" />
          </mxGeometry>
        </mxCell>
        <mxCell id="WCmOqJApZtAGnSyVygM3-210" value="VariableHeader" style="rounded=1;arcSize=10;whiteSpace=wrap;html=1;align=center;fillColor=#008a00;fontColor=#ffffff;strokeColor=#005700;shape=ellipse;perimeter=ellipsePerimeter;" parent="1" vertex="1">
          <mxGeometry x="1079.8600000000001" y="3120" width="130" height="30" as="geometry" />
        </mxCell>
        <mxCell id="WCmOqJApZtAGnSyVygM3-395" style="edgeStyle=orthogonalEdgeStyle;rounded=0;orthogonalLoop=1;jettySize=auto;html=1;strokeColor=default;align=center;verticalAlign=middle;fontFamily=Helvetica;fontSize=11;fontColor=default;labelBackgroundColor=default;endArrow=block;sourcePerimeterSpacing=6;targetPerimeterSpacing=6;endFill=1;" parent="1" source="WCmOqJApZtAGnSyVygM3-211" target="WCmOqJApZtAGnSyVygM3-394" edge="1">
          <mxGeometry relative="1" as="geometry">
            <Array as="points">
              <mxPoint x="1145" y="2735" />
            </Array>
          </mxGeometry>
        </mxCell>
        <mxCell id="WCmOqJApZtAGnSyVygM3-396" value="mqtt:hasPayloadSize" style="edgeLabel;html=1;align=center;verticalAlign=middle;resizable=0;points=[];rounded=0;dashed=1;strokeColor=default;fontFamily=Helvetica;fontSize=11;fontColor=default;labelBackgroundColor=default;" parent="WCmOqJApZtAGnSyVygM3-395" vertex="1" connectable="0">
          <mxGeometry x="-0.4579" y="-3" relative="1" as="geometry">
            <mxPoint x="-3" y="-8" as="offset" />
          </mxGeometry>
        </mxCell>
        <mxCell id="WCmOqJApZtAGnSyVygM3-211" value="Payload" style="rounded=1;arcSize=10;whiteSpace=wrap;html=1;align=center;fillColor=#008a00;fontColor=#ffffff;strokeColor=#005700;shape=ellipse;perimeter=ellipsePerimeter;" parent="1" vertex="1">
          <mxGeometry x="1079.8600000000001" y="2820" width="130" height="30" as="geometry" />
        </mxCell>
        <mxCell id="WCmOqJApZtAGnSyVygM3-246" style="edgeStyle=orthogonalEdgeStyle;rounded=0;orthogonalLoop=1;jettySize=auto;html=1;strokeColor=default;align=center;verticalAlign=middle;fontFamily=Helvetica;fontSize=11;fontColor=default;labelBackgroundColor=default;endArrow=block;sourcePerimeterSpacing=6;targetPerimeterSpacing=6;endFill=0;dashed=1;" parent="1" source="WCmOqJApZtAGnSyVygM3-212" target="WCmOqJApZtAGnSyVygM3-187" edge="1">
          <mxGeometry relative="1" as="geometry">
            <Array as="points">
              <mxPoint x="610" y="2605" />
              <mxPoint x="610" y="2580" />
            </Array>
          </mxGeometry>
        </mxCell>
        <mxCell id="WCmOqJApZtAGnSyVygM3-212" value="PUBLISH" style="rounded=1;arcSize=10;whiteSpace=wrap;html=1;align=center;fillColor=#1ba1e2;fontColor=#ffffff;strokeColor=#006EAF;shape=ellipse;perimeter=ellipsePerimeter;" parent="1" vertex="1">
          <mxGeometry x="639.86" y="2590" width="70" height="30" as="geometry" />
        </mxCell>
        <mxCell id="WCmOqJApZtAGnSyVygM3-257" style="edgeStyle=orthogonalEdgeStyle;rounded=0;orthogonalLoop=1;jettySize=auto;html=1;strokeColor=default;align=center;verticalAlign=middle;fontFamily=Helvetica;fontSize=11;fontColor=default;labelBackgroundColor=default;endArrow=block;sourcePerimeterSpacing=6;targetPerimeterSpacing=6;jumpStyle=arc;endFill=0;dashed=1;" parent="1" source="WCmOqJApZtAGnSyVygM3-214" target="WCmOqJApZtAGnSyVygM3-209" edge="1">
          <mxGeometry relative="1" as="geometry">
            <Array as="points">
              <mxPoint x="480" y="3180" />
              <mxPoint x="1000" y="3180" />
              <mxPoint x="1000" y="3390" />
              <mxPoint x="1145" y="3390" />
            </Array>
          </mxGeometry>
        </mxCell>
        <mxCell id="WCmOqJApZtAGnSyVygM3-214" value="SubscribeFixedHeader" style="rounded=1;arcSize=10;whiteSpace=wrap;html=1;align=center;fillColor=#008a00;fontColor=#ffffff;strokeColor=#005700;shape=ellipse;perimeter=ellipsePerimeter;" parent="1" vertex="1">
          <mxGeometry x="404.86" y="3120" width="150" height="30" as="geometry" />
        </mxCell>
        <mxCell id="WCmOqJApZtAGnSyVygM3-256" style="edgeStyle=orthogonalEdgeStyle;rounded=0;orthogonalLoop=1;jettySize=auto;html=1;strokeColor=default;align=center;verticalAlign=middle;fontFamily=Helvetica;fontSize=11;fontColor=default;labelBackgroundColor=default;endArrow=block;sourcePerimeterSpacing=6;targetPerimeterSpacing=6;jumpStyle=arc;endFill=0;dashed=1;" parent="1" source="WCmOqJApZtAGnSyVygM3-216" target="WCmOqJApZtAGnSyVygM3-210" edge="1">
          <mxGeometry relative="1" as="geometry">
            <Array as="points">
              <mxPoint x="675" y="3170" />
              <mxPoint x="1130" y="3170" />
            </Array>
          </mxGeometry>
        </mxCell>
        <mxCell id="WCmOqJApZtAGnSyVygM3-216" value="SubscribeVariableHeader" style="rounded=1;arcSize=10;whiteSpace=wrap;html=1;align=center;fillColor=#008a00;fontColor=#ffffff;strokeColor=#005700;shape=ellipse;perimeter=ellipsePerimeter;" parent="1" vertex="1">
          <mxGeometry x="594.86" y="3120" width="160" height="30" as="geometry" />
        </mxCell>
        <mxCell id="WCmOqJApZtAGnSyVygM3-255" style="edgeStyle=orthogonalEdgeStyle;rounded=0;orthogonalLoop=1;jettySize=auto;html=1;strokeColor=default;align=center;verticalAlign=middle;fontFamily=Helvetica;fontSize=11;fontColor=default;labelBackgroundColor=default;endArrow=block;sourcePerimeterSpacing=6;targetPerimeterSpacing=6;jumpStyle=arc;endFill=0;dashed=1;" parent="1" source="WCmOqJApZtAGnSyVygM3-218" target="WCmOqJApZtAGnSyVygM3-211" edge="1">
          <mxGeometry relative="1" as="geometry">
            <Array as="points">
              <mxPoint x="1060" y="3135" />
              <mxPoint x="1060" y="2900" />
              <mxPoint x="1160" y="2900" />
            </Array>
          </mxGeometry>
        </mxCell>
        <mxCell id="WCmOqJApZtAGnSyVygM3-218" value="SubscribePayload" style="rounded=1;arcSize=10;whiteSpace=wrap;html=1;align=center;fillColor=#008a00;fontColor=#ffffff;strokeColor=#005700;shape=ellipse;perimeter=ellipsePerimeter;" parent="1" vertex="1">
          <mxGeometry x="794.89" y="3120" width="120" height="30" as="geometry" />
        </mxCell>
        <mxCell id="WCmOqJApZtAGnSyVygM3-260" style="edgeStyle=orthogonalEdgeStyle;rounded=0;orthogonalLoop=1;jettySize=auto;html=1;strokeColor=default;align=center;verticalAlign=middle;fontFamily=Helvetica;fontSize=11;fontColor=default;labelBackgroundColor=default;endArrow=block;sourcePerimeterSpacing=6;targetPerimeterSpacing=6;jumpStyle=arc;dashed=1;endFill=0;" parent="1" source="WCmOqJApZtAGnSyVygM3-220" target="WCmOqJApZtAGnSyVygM3-209" edge="1">
          <mxGeometry relative="1" as="geometry">
            <Array as="points">
              <mxPoint x="475" y="3480" />
              <mxPoint x="1145" y="3480" />
            </Array>
          </mxGeometry>
        </mxCell>
        <mxCell id="WCmOqJApZtAGnSyVygM3-220" value="UnsubscribeFixedHeader" style="rounded=1;arcSize=10;whiteSpace=wrap;html=1;align=center;fillColor=#008a00;strokeColor=#005700;shape=ellipse;perimeter=ellipsePerimeter;fontColor=#ffffff;" parent="1" vertex="1">
          <mxGeometry x="394.89" y="3420" width="160" height="30" as="geometry" />
        </mxCell>
        <mxCell id="WCmOqJApZtAGnSyVygM3-259" style="edgeStyle=orthogonalEdgeStyle;rounded=0;orthogonalLoop=1;jettySize=auto;html=1;jumpStyle=arc;strokeColor=default;align=center;verticalAlign=middle;fontFamily=Helvetica;fontSize=11;fontColor=default;labelBackgroundColor=default;endArrow=block;sourcePerimeterSpacing=6;targetPerimeterSpacing=6;dashed=1;endFill=0;" parent="1" source="WCmOqJApZtAGnSyVygM3-222" target="WCmOqJApZtAGnSyVygM3-210" edge="1">
          <mxGeometry relative="1" as="geometry">
            <Array as="points">
              <mxPoint x="680" y="3470" />
              <mxPoint x="1020" y="3470" />
              <mxPoint x="1020" y="3210" />
              <mxPoint x="1160" y="3210" />
            </Array>
          </mxGeometry>
        </mxCell>
        <mxCell id="WCmOqJApZtAGnSyVygM3-222" value="UnsubscribeVariableHeader" style="rounded=1;arcSize=10;whiteSpace=wrap;html=1;align=center;fillColor=#008a00;fontColor=#ffffff;strokeColor=#005700;shape=ellipse;perimeter=ellipsePerimeter;" parent="1" vertex="1">
          <mxGeometry x="594.86" y="3420" width="170" height="30" as="geometry" />
        </mxCell>
        <mxCell id="WCmOqJApZtAGnSyVygM3-258" style="edgeStyle=orthogonalEdgeStyle;rounded=0;orthogonalLoop=1;jettySize=auto;html=1;jumpStyle=arc;strokeColor=default;align=center;verticalAlign=middle;fontFamily=Helvetica;fontSize=11;fontColor=default;labelBackgroundColor=default;endArrow=block;sourcePerimeterSpacing=6;targetPerimeterSpacing=6;endFill=0;dashed=1;jumpSize=10;" parent="1" source="WCmOqJApZtAGnSyVygM3-224" target="WCmOqJApZtAGnSyVygM3-211" edge="1">
          <mxGeometry relative="1" as="geometry">
            <Array as="points">
              <mxPoint x="870" y="3460" />
              <mxPoint x="1040" y="3460" />
              <mxPoint x="1040" y="2890" />
              <mxPoint x="1145" y="2890" />
            </Array>
          </mxGeometry>
        </mxCell>
        <mxCell id="WCmOqJApZtAGnSyVygM3-224" value="UnsubscribePayload" style="rounded=1;arcSize=10;whiteSpace=wrap;html=1;align=center;fillColor=#008a00;fontColor=#ffffff;strokeColor=#005700;shape=ellipse;perimeter=ellipsePerimeter;" parent="1" vertex="1">
          <mxGeometry x="804.86" y="3420" width="130" height="30" as="geometry" />
        </mxCell>
        <mxCell id="WCmOqJApZtAGnSyVygM3-252" style="edgeStyle=orthogonalEdgeStyle;rounded=0;orthogonalLoop=1;jettySize=auto;html=1;jumpStyle=arc;strokeColor=default;align=center;verticalAlign=middle;fontFamily=Helvetica;fontSize=11;fontColor=default;labelBackgroundColor=default;endArrow=block;sourcePerimeterSpacing=6;targetPerimeterSpacing=6;endFill=0;dashed=1;jumpSize=10;" parent="1" source="WCmOqJApZtAGnSyVygM3-226" target="WCmOqJApZtAGnSyVygM3-209" edge="1">
          <mxGeometry relative="1" as="geometry">
            <Array as="points">
              <mxPoint x="489.86" y="2880" />
              <mxPoint x="979.86" y="2880" />
              <mxPoint x="979.86" y="3440" />
              <mxPoint x="1144.8600000000001" y="3440" />
            </Array>
          </mxGeometry>
        </mxCell>
        <mxCell id="WCmOqJApZtAGnSyVygM3-226" value="PublishFixedHeader" style="rounded=1;arcSize=10;whiteSpace=wrap;html=1;align=center;fillColor=#008a00;fontColor=#ffffff;strokeColor=#005700;shape=ellipse;perimeter=ellipsePerimeter;" parent="1" vertex="1">
          <mxGeometry x="424.86" y="2820" width="130" height="30" as="geometry" />
        </mxCell>
        <mxCell id="WCmOqJApZtAGnSyVygM3-253" style="edgeStyle=orthogonalEdgeStyle;rounded=0;orthogonalLoop=1;jettySize=auto;html=1;jumpStyle=arc;strokeColor=default;align=center;verticalAlign=middle;fontFamily=Helvetica;fontSize=11;fontColor=default;labelBackgroundColor=default;endArrow=block;sourcePerimeterSpacing=6;targetPerimeterSpacing=6;endFill=0;dashed=1;jumpSize=10;" parent="1" source="WCmOqJApZtAGnSyVygM3-228" target="WCmOqJApZtAGnSyVygM3-210" edge="1">
          <mxGeometry relative="1" as="geometry">
            <Array as="points">
              <mxPoint x="675" y="2870" />
              <mxPoint x="1020" y="2870" />
              <mxPoint x="1020" y="3190" />
              <mxPoint x="1145" y="3190" />
            </Array>
          </mxGeometry>
        </mxCell>
        <mxCell id="WCmOqJApZtAGnSyVygM3-228" value="PublishVariableHeader" style="rounded=1;arcSize=10;whiteSpace=wrap;html=1;align=center;fillColor=#008a00;fontColor=#ffffff;strokeColor=#005700;shape=ellipse;perimeter=ellipsePerimeter;" parent="1" vertex="1">
          <mxGeometry x="599.86" y="2820" width="150" height="30" as="geometry" />
        </mxCell>
        <mxCell id="WCmOqJApZtAGnSyVygM3-254" style="edgeStyle=orthogonalEdgeStyle;rounded=0;orthogonalLoop=1;jettySize=auto;html=1;strokeColor=default;align=center;verticalAlign=middle;fontFamily=Helvetica;fontSize=11;fontColor=default;labelBackgroundColor=default;endArrow=block;sourcePerimeterSpacing=6;targetPerimeterSpacing=6;jumpStyle=arc;endFill=0;dashed=1;" parent="1" source="WCmOqJApZtAGnSyVygM3-230" target="WCmOqJApZtAGnSyVygM3-211" edge="1">
          <mxGeometry relative="1" as="geometry">
            <Array as="points">
              <mxPoint x="840" y="2860" />
              <mxPoint x="1040" y="2860" />
              <mxPoint x="1040" y="2880" />
              <mxPoint x="1130" y="2880" />
            </Array>
          </mxGeometry>
        </mxCell>
        <mxCell id="WCmOqJApZtAGnSyVygM3-230" value="PublishPayload" style="rounded=1;arcSize=10;whiteSpace=wrap;html=1;align=center;fillColor=#008a00;fontColor=#ffffff;strokeColor=#005700;shape=ellipse;perimeter=ellipsePerimeter;" parent="1" vertex="1">
          <mxGeometry x="784.86" y="2820" width="110" height="30" as="geometry" />
        </mxCell>
        <mxCell id="WCmOqJApZtAGnSyVygM3-285" style="edgeStyle=orthogonalEdgeStyle;rounded=0;orthogonalLoop=1;jettySize=auto;html=1;strokeColor=default;align=center;verticalAlign=middle;fontFamily=Helvetica;fontSize=11;fontColor=default;labelBackgroundColor=default;endArrow=block;sourcePerimeterSpacing=6;targetPerimeterSpacing=6;startArrow=block;startFill=1;endFill=1;" parent="1" source="WCmOqJApZtAGnSyVygM3-284" target="WCmOqJApZtAGnSyVygM3-43" edge="1">
          <mxGeometry relative="1" as="geometry">
            <mxPoint x="1100.0000000000002" y="1599.31" as="sourcePoint" />
            <mxPoint x="871.8600000000004" y="1599.31" as="targetPoint" />
            <Array as="points">
              <mxPoint x="720" y="1680" />
            </Array>
          </mxGeometry>
        </mxCell>
        <mxCell id="WCmOqJApZtAGnSyVygM3-286" value="mqtt:hasTopicName" style="edgeLabel;html=1;align=center;verticalAlign=middle;resizable=0;points=[];rounded=0;dashed=1;strokeColor=default;fontFamily=Helvetica;fontSize=11;fontColor=default;labelBackgroundColor=default;" parent="WCmOqJApZtAGnSyVygM3-285" vertex="1" connectable="0">
          <mxGeometry x="-0.3255" y="3" relative="1" as="geometry">
            <mxPoint x="3" y="-2" as="offset" />
          </mxGeometry>
        </mxCell>
        <mxCell id="WCmOqJApZtAGnSyVygM3-287" value="mqtt:isTopicNameOf" style="edgeLabel;html=1;align=center;verticalAlign=middle;resizable=0;points=[];rounded=0;dashed=1;strokeColor=default;fontFamily=Helvetica;fontSize=11;fontColor=default;labelBackgroundColor=default;" parent="WCmOqJApZtAGnSyVygM3-285" vertex="1" connectable="0">
          <mxGeometry x="-0.6399" relative="1" as="geometry">
            <mxPoint as="offset" />
          </mxGeometry>
        </mxCell>
        <mxCell id="WCmOqJApZtAGnSyVygM3-358" value="" style="edgeStyle=orthogonalEdgeStyle;rounded=0;orthogonalLoop=1;jettySize=auto;html=1;strokeColor=default;align=center;verticalAlign=middle;fontFamily=Helvetica;fontSize=11;fontColor=default;labelBackgroundColor=default;endArrow=block;sourcePerimeterSpacing=6;targetPerimeterSpacing=6;endFill=1;startArrow=block;startFill=1;" parent="1" source="WCmOqJApZtAGnSyVygM3-284" target="WCmOqJApZtAGnSyVygM3-354" edge="1">
          <mxGeometry relative="1" as="geometry">
            <Array as="points">
              <mxPoint x="680" y="1840" />
              <mxPoint x="680" y="1840" />
            </Array>
          </mxGeometry>
        </mxCell>
        <mxCell id="QUYEnXkk5DzQdazWsJcp-5" value="mqtt:hasPublishVariableHeader" style="edgeLabel;html=1;align=center;verticalAlign=middle;resizable=0;points=[];" parent="WCmOqJApZtAGnSyVygM3-358" vertex="1" connectable="0">
          <mxGeometry x="0.0641" y="-2" relative="1" as="geometry">
            <mxPoint x="2" y="-15" as="offset" />
          </mxGeometry>
        </mxCell>
        <mxCell id="QUYEnXkk5DzQdazWsJcp-6" value="mqtt:isPublishVariableHeaderOf" style="edgeLabel;html=1;align=center;verticalAlign=middle;resizable=0;points=[];" parent="WCmOqJApZtAGnSyVygM3-358" vertex="1" connectable="0">
          <mxGeometry x="0.116" y="-1" relative="1" as="geometry">
            <mxPoint x="2" y="6" as="offset" />
          </mxGeometry>
        </mxCell>
        <mxCell id="WCmOqJApZtAGnSyVygM3-284" value="PublishVariableHeader" style="rounded=1;arcSize=10;whiteSpace=wrap;html=1;align=center;fillColor=#008a00;fontColor=#ffffff;strokeColor=#005700;shape=ellipse;perimeter=ellipsePerimeter;" parent="1" vertex="1">
          <mxGeometry x="599.86" y="1750" width="150" height="30" as="geometry" />
        </mxCell>
        <mxCell id="WCmOqJApZtAGnSyVygM3-291" style="edgeStyle=orthogonalEdgeStyle;rounded=0;orthogonalLoop=1;jettySize=auto;html=1;strokeColor=default;align=center;verticalAlign=middle;fontFamily=Helvetica;fontSize=11;fontColor=default;labelBackgroundColor=default;endArrow=block;sourcePerimeterSpacing=6;targetPerimeterSpacing=6;startArrow=block;startFill=1;endFill=1;" parent="1" source="WCmOqJApZtAGnSyVygM3-288" target="WCmOqJApZtAGnSyVygM3-290" edge="1">
          <mxGeometry relative="1" as="geometry">
            <Array as="points">
              <mxPoint x="1170" y="1960" />
              <mxPoint x="1170" y="1960" />
            </Array>
          </mxGeometry>
        </mxCell>
        <mxCell id="WCmOqJApZtAGnSyVygM3-292" value="mqtt:has&lt;br&gt;Subscriptions" style="edgeLabel;html=1;align=center;verticalAlign=middle;resizable=0;points=[];rounded=0;dashed=1;strokeColor=default;fontFamily=Helvetica;fontSize=11;fontColor=default;labelBackgroundColor=default;" parent="WCmOqJApZtAGnSyVygM3-291" vertex="1" connectable="0">
          <mxGeometry x="0.7395" y="-1" relative="1" as="geometry">
            <mxPoint x="-1" y="12" as="offset" />
          </mxGeometry>
        </mxCell>
        <mxCell id="WCmOqJApZtAGnSyVygM3-293" value="mqtt:is&lt;br&gt;SubscrptionOf" style="edgeLabel;html=1;align=center;verticalAlign=middle;resizable=0;points=[];rounded=0;dashed=1;strokeColor=default;fontFamily=Helvetica;fontSize=11;fontColor=default;labelBackgroundColor=default;" parent="WCmOqJApZtAGnSyVygM3-291" vertex="1" connectable="0">
          <mxGeometry x="-0.7683" y="3" relative="1" as="geometry">
            <mxPoint x="3" y="-17" as="offset" />
          </mxGeometry>
        </mxCell>
        <mxCell id="WCmOqJApZtAGnSyVygM3-288" value="SubscribePayload" style="rounded=1;arcSize=10;whiteSpace=wrap;html=1;align=center;fillColor=#008a00;fontColor=#ffffff;strokeColor=#005700;shape=ellipse;perimeter=ellipsePerimeter;" parent="1" vertex="1">
          <mxGeometry x="1110" y="2040" width="120" height="30" as="geometry" />
        </mxCell>
        <mxCell id="WCmOqJApZtAGnSyVygM3-289" value="UnsubscribePayload" style="rounded=1;arcSize=10;whiteSpace=wrap;html=1;align=center;fillColor=#008a00;fontColor=#ffffff;strokeColor=#005700;shape=ellipse;perimeter=ellipsePerimeter;" parent="1" vertex="1">
          <mxGeometry x="875" y="2040" width="130" height="30" as="geometry" />
        </mxCell>
        <mxCell id="WCmOqJApZtAGnSyVygM3-299" style="edgeStyle=orthogonalEdgeStyle;rounded=0;orthogonalLoop=1;jettySize=auto;html=1;strokeColor=default;align=center;verticalAlign=middle;fontFamily=Helvetica;fontSize=11;fontColor=default;labelBackgroundColor=default;endArrow=block;sourcePerimeterSpacing=6;targetPerimeterSpacing=6;endFill=1;" parent="1" source="WCmOqJApZtAGnSyVygM3-290" target="WCmOqJApZtAGnSyVygM3-294" edge="1">
          <mxGeometry relative="1" as="geometry">
            <mxPoint x="1530" y="1760" as="targetPoint" />
            <Array as="points">
              <mxPoint x="1120" y="1945" />
            </Array>
          </mxGeometry>
        </mxCell>
        <mxCell id="WCmOqJApZtAGnSyVygM3-300" value="mqtt:has&lt;br&gt;QoSLevel" style="edgeLabel;html=1;align=center;verticalAlign=middle;resizable=0;points=[];rounded=0;dashed=1;strokeColor=default;fontFamily=Helvetica;fontSize=11;fontColor=default;labelBackgroundColor=default;" parent="WCmOqJApZtAGnSyVygM3-299" vertex="1" connectable="0">
          <mxGeometry x="0.4673" y="-4" relative="1" as="geometry">
            <mxPoint x="28" y="4" as="offset" />
          </mxGeometry>
        </mxCell>
        <mxCell id="WCmOqJApZtAGnSyVygM3-304" style="edgeStyle=orthogonalEdgeStyle;rounded=0;orthogonalLoop=1;jettySize=auto;html=1;strokeColor=default;align=center;verticalAlign=middle;fontFamily=Helvetica;fontSize=11;fontColor=default;labelBackgroundColor=default;endArrow=block;sourcePerimeterSpacing=6;targetPerimeterSpacing=6;startArrow=block;startFill=1;endFill=1;" parent="1" source="SGKCxWPsG8HPYs7f4zCw-50" target="WCmOqJApZtAGnSyVygM3-44" edge="1">
          <mxGeometry relative="1" as="geometry">
            <mxPoint x="1434.9700000000003" y="1960" as="sourcePoint" />
            <mxPoint x="1020" y="1760" as="targetPoint" />
            <Array as="points">
              <mxPoint x="940" y="1880" />
              <mxPoint x="860" y="1880" />
            </Array>
          </mxGeometry>
        </mxCell>
        <mxCell id="WCmOqJApZtAGnSyVygM3-305" value="mqtt:is&lt;br&gt;TopicFilterOf" style="edgeLabel;html=1;align=center;verticalAlign=middle;resizable=0;points=[];rounded=0;dashed=1;strokeColor=default;fontFamily=Helvetica;fontSize=11;fontColor=default;labelBackgroundColor=default;" parent="WCmOqJApZtAGnSyVygM3-304" vertex="1" connectable="0">
          <mxGeometry x="-0.6523" y="3" relative="1" as="geometry">
            <mxPoint x="2" y="4" as="offset" />
          </mxGeometry>
        </mxCell>
        <mxCell id="WCmOqJApZtAGnSyVygM3-306" value="mqtt:has&lt;br&gt;TopicFilter" style="edgeLabel;html=1;align=center;verticalAlign=middle;resizable=0;points=[];rounded=0;dashed=1;strokeColor=default;fontFamily=Helvetica;fontSize=11;fontColor=default;labelBackgroundColor=default;" parent="WCmOqJApZtAGnSyVygM3-304" vertex="1" connectable="0">
          <mxGeometry x="-0.2388" y="1" relative="1" as="geometry">
            <mxPoint x="-70" y="-22" as="offset" />
          </mxGeometry>
        </mxCell>
        <mxCell id="WCmOqJApZtAGnSyVygM3-290" value="SubscriptionEntry" style="rounded=1;arcSize=10;whiteSpace=wrap;html=1;align=center;fillColor=#008a00;fontColor=#ffffff;strokeColor=#005700;shape=ellipse;perimeter=ellipsePerimeter;" parent="1" vertex="1">
          <mxGeometry x="1079.86" y="1850" width="130" height="30" as="geometry" />
        </mxCell>
        <mxCell id="WCmOqJApZtAGnSyVygM3-294" value="integer" style="whiteSpace=wrap;html=1;align=center;fillColor=#d80073;fontColor=#ffffff;strokeColor=#A50040;shape=label;rounded=0;" parent="1" vertex="1">
          <mxGeometry x="1014.86" y="1990" width="60" height="30" as="geometry" />
        </mxCell>
        <mxCell id="WCmOqJApZtAGnSyVygM3-295" value="integer" style="whiteSpace=wrap;html=1;align=center;fillColor=#d80073;fontColor=#ffffff;strokeColor=#A50040;" parent="1" vertex="1">
          <mxGeometry x="240" y="1795" width="60" height="30" as="geometry" />
        </mxCell>
        <mxCell id="WCmOqJApZtAGnSyVygM3-297" style="edgeStyle=orthogonalEdgeStyle;rounded=0;orthogonalLoop=1;jettySize=auto;html=1;strokeColor=default;align=center;verticalAlign=middle;fontFamily=Helvetica;fontSize=11;fontColor=default;labelBackgroundColor=default;endArrow=block;sourcePerimeterSpacing=6;targetPerimeterSpacing=6;endFill=1;" parent="1" source="WCmOqJApZtAGnSyVygM3-296" target="WCmOqJApZtAGnSyVygM3-295" edge="1">
          <mxGeometry relative="1" as="geometry" />
        </mxCell>
        <mxCell id="WCmOqJApZtAGnSyVygM3-298" value="mqtt:hasQoSLevel" style="edgeLabel;html=1;align=center;verticalAlign=middle;resizable=0;points=[];rounded=0;dashed=1;strokeColor=default;fontFamily=Helvetica;fontSize=11;fontColor=default;labelBackgroundColor=default;" parent="WCmOqJApZtAGnSyVygM3-297" vertex="1" connectable="0">
          <mxGeometry x="-0.2117" y="3" relative="1" as="geometry">
            <mxPoint x="-6" y="-3" as="offset" />
          </mxGeometry>
        </mxCell>
        <mxCell id="WCmOqJApZtAGnSyVygM3-357" style="edgeStyle=orthogonalEdgeStyle;rounded=0;orthogonalLoop=1;jettySize=auto;html=1;strokeColor=default;align=center;verticalAlign=middle;fontFamily=Helvetica;fontSize=11;fontColor=default;labelBackgroundColor=default;endArrow=block;sourcePerimeterSpacing=6;targetPerimeterSpacing=6;endFill=1;startArrow=block;startFill=1;" parent="1" source="WCmOqJApZtAGnSyVygM3-296" target="WCmOqJApZtAGnSyVygM3-354" edge="1">
          <mxGeometry relative="1" as="geometry">
            <Array as="points">
              <mxPoint x="460" y="1875" />
            </Array>
          </mxGeometry>
        </mxCell>
        <mxCell id="QUYEnXkk5DzQdazWsJcp-3" value="mqtt:isPublishFixedHeaderOf" style="edgeLabel;html=1;align=center;verticalAlign=middle;resizable=0;points=[];" parent="WCmOqJApZtAGnSyVygM3-357" vertex="1" connectable="0">
          <mxGeometry x="0.116" relative="1" as="geometry">
            <mxPoint x="17" as="offset" />
          </mxGeometry>
        </mxCell>
        <mxCell id="QUYEnXkk5DzQdazWsJcp-4" value="mqtt:hasPublishFixedHeader" style="edgeLabel;html=1;align=center;verticalAlign=middle;resizable=0;points=[];" parent="WCmOqJApZtAGnSyVygM3-357" vertex="1" connectable="0">
          <mxGeometry x="-0.6578" y="-1" relative="1" as="geometry">
            <mxPoint y="-17" as="offset" />
          </mxGeometry>
        </mxCell>
        <mxCell id="WCmOqJApZtAGnSyVygM3-402" style="edgeStyle=orthogonalEdgeStyle;rounded=0;orthogonalLoop=1;jettySize=auto;html=1;strokeColor=default;align=center;verticalAlign=middle;fontFamily=Helvetica;fontSize=11;fontColor=default;labelBackgroundColor=default;endArrow=block;sourcePerimeterSpacing=6;targetPerimeterSpacing=6;endFill=1;" parent="1" source="WCmOqJApZtAGnSyVygM3-296" target="WCmOqJApZtAGnSyVygM3-401" edge="1">
          <mxGeometry relative="1" as="geometry">
            <Array as="points">
              <mxPoint x="470" y="1745" />
            </Array>
          </mxGeometry>
        </mxCell>
        <mxCell id="WCmOqJApZtAGnSyVygM3-403" value="mqtt:isRetainedFlag" style="edgeLabel;html=1;align=center;verticalAlign=middle;resizable=0;points=[];rounded=0;dashed=1;strokeColor=default;fontFamily=Helvetica;fontSize=11;fontColor=default;labelBackgroundColor=default;" parent="WCmOqJApZtAGnSyVygM3-402" vertex="1" connectable="0">
          <mxGeometry x="0.2979" y="1" relative="1" as="geometry">
            <mxPoint x="-2" as="offset" />
          </mxGeometry>
        </mxCell>
        <mxCell id="WCmOqJApZtAGnSyVygM3-406" style="edgeStyle=orthogonalEdgeStyle;rounded=0;orthogonalLoop=1;jettySize=auto;html=1;strokeColor=default;align=center;verticalAlign=middle;fontFamily=Helvetica;fontSize=11;fontColor=default;labelBackgroundColor=default;endArrow=block;sourcePerimeterSpacing=6;targetPerimeterSpacing=6;endFill=1;" parent="1" source="WCmOqJApZtAGnSyVygM3-296" target="WCmOqJApZtAGnSyVygM3-404" edge="1">
          <mxGeometry relative="1" as="geometry">
            <Array as="points">
              <mxPoint x="520" y="1780" />
              <mxPoint x="520" y="1780" />
            </Array>
          </mxGeometry>
        </mxCell>
        <mxCell id="WCmOqJApZtAGnSyVygM3-407" value="mqtt:isDUPFlag" style="edgeLabel;html=1;align=center;verticalAlign=middle;resizable=0;points=[];rounded=0;dashed=1;strokeColor=default;fontFamily=Helvetica;fontSize=11;fontColor=default;labelBackgroundColor=default;" parent="WCmOqJApZtAGnSyVygM3-406" vertex="1" connectable="0">
          <mxGeometry x="-0.6185" y="-3" relative="1" as="geometry">
            <mxPoint x="-1" y="-8" as="offset" />
          </mxGeometry>
        </mxCell>
        <mxCell id="WCmOqJApZtAGnSyVygM3-296" value="PublishFixedHeader" style="rounded=1;arcSize=10;whiteSpace=wrap;html=1;align=center;fillColor=#008a00;fontColor=#ffffff;strokeColor=#005700;shape=ellipse;perimeter=ellipsePerimeter;" parent="1" vertex="1">
          <mxGeometry x="430" y="1795" width="130" height="30" as="geometry" />
        </mxCell>
        <mxCell id="WCmOqJApZtAGnSyVygM3-314" value="mqv:has&lt;br&gt;TopicFilters" style="edgeStyle=orthogonalEdgeStyle;rounded=0;orthogonalLoop=1;jettySize=auto;html=1;strokeColor=default;align=center;verticalAlign=middle;fontFamily=Helvetica;fontSize=11;fontColor=default;labelBackgroundColor=default;endArrow=block;sourcePerimeterSpacing=6;targetPerimeterSpacing=6;endFill=1;" parent="1" source="WCmOqJApZtAGnSyVygM3-307" target="WCmOqJApZtAGnSyVygM3-45" edge="1">
          <mxGeometry x="-0.1732" relative="1" as="geometry">
            <mxPoint as="offset" />
          </mxGeometry>
        </mxCell>
        <mxCell id="WCmOqJApZtAGnSyVygM3-307" value="SUBSCRIBE" style="rounded=1;arcSize=10;whiteSpace=wrap;html=1;align=center;fillColor=#1ba1e2;fontColor=#ffffff;strokeColor=#006EAF;shape=ellipse;perimeter=ellipsePerimeter;" parent="1" vertex="1">
          <mxGeometry x="1219.9299999999998" y="1730" width="90" height="30" as="geometry" />
        </mxCell>
        <mxCell id="WCmOqJApZtAGnSyVygM3-315" value="mqv:has&lt;br&gt;TopicFilters" style="edgeStyle=orthogonalEdgeStyle;rounded=0;orthogonalLoop=1;jettySize=auto;html=1;strokeColor=default;align=center;verticalAlign=middle;fontFamily=Helvetica;fontSize=11;fontColor=default;labelBackgroundColor=default;endArrow=block;sourcePerimeterSpacing=6;targetPerimeterSpacing=6;endFill=1;" parent="1" source="WCmOqJApZtAGnSyVygM3-308" target="WCmOqJApZtAGnSyVygM3-45" edge="1">
          <mxGeometry relative="1" as="geometry">
            <Array as="points">
              <mxPoint x="1150" y="1810" />
              <mxPoint x="1150" y="1810" />
            </Array>
          </mxGeometry>
        </mxCell>
        <mxCell id="WCmOqJApZtAGnSyVygM3-308" value="UNSUBSCRIBE" style="rounded=1;arcSize=10;whiteSpace=wrap;html=1;align=center;fillColor=#1ba1e2;fontColor=#ffffff;strokeColor=#006EAF;shape=ellipse;perimeter=ellipsePerimeter;" parent="1" vertex="1">
          <mxGeometry x="1209.9299999999998" y="1795" width="110" height="30" as="geometry" />
        </mxCell>
        <mxCell id="WCmOqJApZtAGnSyVygM3-313" value="mqv:has&lt;br&gt;TopicName" style="edgeStyle=orthogonalEdgeStyle;rounded=0;orthogonalLoop=1;jettySize=auto;html=1;strokeColor=default;align=center;verticalAlign=middle;fontFamily=Helvetica;fontSize=11;fontColor=default;labelBackgroundColor=default;endArrow=block;sourcePerimeterSpacing=6;targetPerimeterSpacing=6;endFill=1;" parent="1" source="WCmOqJApZtAGnSyVygM3-309" target="WCmOqJApZtAGnSyVygM3-42" edge="1">
          <mxGeometry x="-0.1464" relative="1" as="geometry">
            <Array as="points" />
            <mxPoint as="offset" />
            <mxPoint x="1188.8599999999997" y="1680" as="sourcePoint" />
            <mxPoint x="1092" y="1679.9999999999998" as="targetPoint" />
          </mxGeometry>
        </mxCell>
        <mxCell id="WCmOqJApZtAGnSyVygM3-309" value="PUBLISH" style="rounded=1;arcSize=10;whiteSpace=wrap;html=1;align=center;fillColor=#1ba1e2;fontColor=#ffffff;strokeColor=#006EAF;shape=ellipse;perimeter=ellipsePerimeter;" parent="1" vertex="1">
          <mxGeometry x="1229.9299999999998" y="1665" width="70" height="30" as="geometry" />
        </mxCell>
        <mxCell id="WCmOqJApZtAGnSyVygM3-339" style="edgeStyle=orthogonalEdgeStyle;rounded=0;orthogonalLoop=1;jettySize=auto;html=1;strokeColor=default;align=center;verticalAlign=middle;fontFamily=Helvetica;fontSize=11;fontColor=default;labelBackgroundColor=default;startArrow=none;startFill=0;endArrow=block;endFill=1;sourcePerimeterSpacing=6;targetPerimeterSpacing=6;curved=0;fillColor=default;" parent="1" source="WCmOqJApZtAGnSyVygM3-324" target="WCmOqJApZtAGnSyVygM3-326" edge="1">
          <mxGeometry relative="1" as="geometry">
            <Array as="points">
              <mxPoint x="620" y="1945" />
            </Array>
          </mxGeometry>
        </mxCell>
        <mxCell id="WCmOqJApZtAGnSyVygM3-343" value="mqtt:payloadEncodesObservation" style="edgeLabel;html=1;align=center;verticalAlign=middle;resizable=0;points=[];rounded=0;dashed=1;strokeColor=default;fontFamily=Helvetica;fontSize=11;fontColor=default;labelBackgroundColor=default;fillColor=default;" parent="WCmOqJApZtAGnSyVygM3-339" vertex="1" connectable="0">
          <mxGeometry x="0.5186" y="-2" relative="1" as="geometry">
            <mxPoint x="25" y="2" as="offset" />
          </mxGeometry>
        </mxCell>
        <mxCell id="WCmOqJApZtAGnSyVygM3-340" style="edgeStyle=orthogonalEdgeStyle;rounded=0;orthogonalLoop=1;jettySize=auto;html=1;strokeColor=default;align=center;verticalAlign=middle;fontFamily=Helvetica;fontSize=11;fontColor=default;labelBackgroundColor=default;startArrow=none;startFill=0;endArrow=block;endFill=1;sourcePerimeterSpacing=6;targetPerimeterSpacing=6;curved=0;fillColor=default;" parent="1" source="WCmOqJApZtAGnSyVygM3-324" target="WCmOqJApZtAGnSyVygM3-327" edge="1">
          <mxGeometry relative="1" as="geometry">
            <Array as="points">
              <mxPoint x="620" y="2025" />
            </Array>
          </mxGeometry>
        </mxCell>
        <mxCell id="WCmOqJApZtAGnSyVygM3-344" value="mqtt:payloadEncodesActuationCollection" style="edgeLabel;html=1;align=center;verticalAlign=middle;resizable=0;points=[];rounded=0;dashed=1;strokeColor=default;fontFamily=Helvetica;fontSize=11;fontColor=default;labelBackgroundColor=default;fillColor=default;" parent="WCmOqJApZtAGnSyVygM3-340" vertex="1" connectable="0">
          <mxGeometry x="0.4902" y="2" relative="1" as="geometry">
            <mxPoint x="50" y="-2" as="offset" />
          </mxGeometry>
        </mxCell>
        <mxCell id="WCmOqJApZtAGnSyVygM3-341" style="edgeStyle=orthogonalEdgeStyle;rounded=0;orthogonalLoop=1;jettySize=auto;html=1;strokeColor=default;align=center;verticalAlign=middle;fontFamily=Helvetica;fontSize=11;fontColor=default;labelBackgroundColor=default;startArrow=none;startFill=0;endArrow=block;endFill=1;sourcePerimeterSpacing=6;targetPerimeterSpacing=6;curved=0;fillColor=default;" parent="1" source="WCmOqJApZtAGnSyVygM3-324" target="WCmOqJApZtAGnSyVygM3-328" edge="1">
          <mxGeometry relative="1" as="geometry">
            <Array as="points">
              <mxPoint x="640" y="2065" />
            </Array>
          </mxGeometry>
        </mxCell>
        <mxCell id="WCmOqJApZtAGnSyVygM3-345" value="mqtt:payloadEncodesObservationCollection" style="edgeLabel;html=1;align=center;verticalAlign=middle;resizable=0;points=[];rounded=0;dashed=1;strokeColor=default;fontFamily=Helvetica;fontSize=11;fontColor=default;labelBackgroundColor=default;fillColor=default;" parent="WCmOqJApZtAGnSyVygM3-341" vertex="1" connectable="0">
          <mxGeometry x="0.8212" y="2" relative="1" as="geometry">
            <mxPoint x="96" y="-2" as="offset" />
          </mxGeometry>
        </mxCell>
        <mxCell id="WCmOqJApZtAGnSyVygM3-348" style="edgeStyle=orthogonalEdgeStyle;rounded=0;orthogonalLoop=1;jettySize=auto;html=1;strokeColor=default;align=center;verticalAlign=middle;fontFamily=Helvetica;fontSize=11;fontColor=default;labelBackgroundColor=default;startArrow=block;startFill=1;endArrow=block;endFill=1;sourcePerimeterSpacing=6;targetPerimeterSpacing=6;curved=0;fillColor=default;strokeWidth=1;" parent="1" source="WCmOqJApZtAGnSyVygM3-324" target="WCmOqJApZtAGnSyVygM3-347" edge="1">
          <mxGeometry relative="1" as="geometry" />
        </mxCell>
        <mxCell id="WCmOqJApZtAGnSyVygM3-349" value="mqtt:isEncodedInPayload" style="edgeLabel;html=1;align=center;verticalAlign=middle;resizable=0;points=[];rounded=0;dashed=1;strokeColor=default;fontFamily=Helvetica;fontSize=11;fontColor=default;labelBackgroundColor=default;fillColor=default;" parent="WCmOqJApZtAGnSyVygM3-348" vertex="1" connectable="0">
          <mxGeometry x="-0.6697" y="2" relative="1" as="geometry">
            <mxPoint x="-33" y="-2" as="offset" />
          </mxGeometry>
        </mxCell>
        <mxCell id="WCmOqJApZtAGnSyVygM3-350" value="mqtt:hasEncodedFields" style="edgeLabel;html=1;align=center;verticalAlign=middle;resizable=0;points=[];rounded=0;dashed=1;strokeColor=default;fontFamily=Helvetica;fontSize=11;fontColor=default;labelBackgroundColor=default;fillColor=default;" parent="WCmOqJApZtAGnSyVygM3-348" vertex="1" connectable="0">
          <mxGeometry x="0.578" relative="1" as="geometry">
            <mxPoint x="9" as="offset" />
          </mxGeometry>
        </mxCell>
        <mxCell id="WCmOqJApZtAGnSyVygM3-355" style="edgeStyle=orthogonalEdgeStyle;rounded=0;orthogonalLoop=1;jettySize=auto;html=1;strokeColor=default;align=center;verticalAlign=middle;fontFamily=Helvetica;fontSize=11;fontColor=default;labelBackgroundColor=default;endArrow=block;sourcePerimeterSpacing=6;targetPerimeterSpacing=6;endFill=1;startArrow=block;startFill=1;" parent="1" source="WCmOqJApZtAGnSyVygM3-324" target="WCmOqJApZtAGnSyVygM3-354" edge="1">
          <mxGeometry relative="1" as="geometry">
            <Array as="points">
              <mxPoint x="700" y="1920" />
              <mxPoint x="700" y="1920" />
            </Array>
          </mxGeometry>
        </mxCell>
        <mxCell id="QUYEnXkk5DzQdazWsJcp-7" value="mqtt:isPublishPayloadOf" style="edgeLabel;html=1;align=center;verticalAlign=middle;resizable=0;points=[];" parent="WCmOqJApZtAGnSyVygM3-355" vertex="1" connectable="0">
          <mxGeometry x="0.4674" y="1" relative="1" as="geometry">
            <mxPoint x="11" y="3" as="offset" />
          </mxGeometry>
        </mxCell>
        <mxCell id="QUYEnXkk5DzQdazWsJcp-8" value="mqtt:hasPublishPayload" style="edgeLabel;html=1;align=center;verticalAlign=middle;resizable=0;points=[];" parent="WCmOqJApZtAGnSyVygM3-355" vertex="1" connectable="0">
          <mxGeometry x="-0.2223" y="2" relative="1" as="geometry">
            <mxPoint x="12" y="5" as="offset" />
          </mxGeometry>
        </mxCell>
        <mxCell id="WCmOqJApZtAGnSyVygM3-412" style="edgeStyle=orthogonalEdgeStyle;rounded=0;orthogonalLoop=1;jettySize=auto;html=1;strokeColor=default;align=center;verticalAlign=middle;fontFamily=Helvetica;fontSize=11;fontColor=default;labelBackgroundColor=default;startArrow=none;startFill=0;endArrow=block;endFill=1;sourcePerimeterSpacing=6;targetPerimeterSpacing=6;curved=0;fillColor=default;" parent="1" source="WCmOqJApZtAGnSyVygM3-324" target="WCmOqJApZtAGnSyVygM3-410" edge="1">
          <mxGeometry relative="1" as="geometry">
            <Array as="points">
              <mxPoint x="660" y="2105" />
            </Array>
          </mxGeometry>
        </mxCell>
        <mxCell id="WCmOqJApZtAGnSyVygM3-416" value="mqtt:hasPayloadContentDelimiter" style="edgeLabel;html=1;align=center;verticalAlign=middle;resizable=0;points=[];" parent="WCmOqJApZtAGnSyVygM3-412" vertex="1" connectable="0">
          <mxGeometry x="0.4692" y="-1" relative="1" as="geometry">
            <mxPoint x="19" y="1" as="offset" />
          </mxGeometry>
        </mxCell>
        <mxCell id="WCmOqJApZtAGnSyVygM3-413" style="edgeStyle=orthogonalEdgeStyle;rounded=0;orthogonalLoop=1;jettySize=auto;html=1;strokeColor=default;align=center;verticalAlign=middle;fontFamily=Helvetica;fontSize=11;fontColor=default;labelBackgroundColor=default;startArrow=none;startFill=0;endArrow=block;endFill=1;sourcePerimeterSpacing=6;targetPerimeterSpacing=6;curved=0;fillColor=default;" parent="1" source="WCmOqJApZtAGnSyVygM3-324" target="WCmOqJApZtAGnSyVygM3-409" edge="1">
          <mxGeometry relative="1" as="geometry">
            <Array as="points">
              <mxPoint x="670" y="2155" />
            </Array>
          </mxGeometry>
        </mxCell>
        <mxCell id="WCmOqJApZtAGnSyVygM3-417" value="mqtt:hasPayloadContentType" style="edgeLabel;html=1;align=center;verticalAlign=middle;resizable=0;points=[];" parent="WCmOqJApZtAGnSyVygM3-413" vertex="1" connectable="0">
          <mxGeometry x="0.6012" y="-2" relative="1" as="geometry">
            <mxPoint x="17" y="2" as="offset" />
          </mxGeometry>
        </mxCell>
        <mxCell id="WCmOqJApZtAGnSyVygM3-414" style="edgeStyle=orthogonalEdgeStyle;rounded=0;orthogonalLoop=1;jettySize=auto;html=1;strokeColor=default;align=center;verticalAlign=middle;fontFamily=Helvetica;fontSize=11;fontColor=default;labelBackgroundColor=default;startArrow=none;startFill=0;endArrow=block;endFill=1;sourcePerimeterSpacing=6;targetPerimeterSpacing=6;curved=0;fillColor=default;" parent="1" source="WCmOqJApZtAGnSyVygM3-324" target="WCmOqJApZtAGnSyVygM3-411" edge="1">
          <mxGeometry relative="1" as="geometry">
            <Array as="points">
              <mxPoint x="680" y="2155" />
            </Array>
          </mxGeometry>
        </mxCell>
        <mxCell id="WCmOqJApZtAGnSyVygM3-419" value="mqtt:hasPayloadEncoding" style="edgeLabel;html=1;align=center;verticalAlign=middle;resizable=0;points=[];" parent="WCmOqJApZtAGnSyVygM3-414" vertex="1" connectable="0">
          <mxGeometry x="0.3246" y="1" relative="1" as="geometry">
            <mxPoint x="31" y="1" as="offset" />
          </mxGeometry>
        </mxCell>
        <mxCell id="WCmOqJApZtAGnSyVygM3-415" style="edgeStyle=orthogonalEdgeStyle;rounded=0;orthogonalLoop=1;jettySize=auto;html=1;strokeColor=default;align=center;verticalAlign=middle;fontFamily=Helvetica;fontSize=11;fontColor=default;labelBackgroundColor=default;startArrow=none;startFill=0;endArrow=block;endFill=1;sourcePerimeterSpacing=6;targetPerimeterSpacing=6;curved=0;fillColor=default;" parent="1" source="WCmOqJApZtAGnSyVygM3-324" target="WCmOqJApZtAGnSyVygM3-408" edge="1">
          <mxGeometry relative="1" as="geometry">
            <Array as="points">
              <mxPoint x="690" y="2105" />
            </Array>
          </mxGeometry>
        </mxCell>
        <mxCell id="WCmOqJApZtAGnSyVygM3-418" value="mqtt:hasPayloadContent" style="edgeLabel;html=1;align=center;verticalAlign=middle;resizable=0;points=[];" parent="WCmOqJApZtAGnSyVygM3-415" vertex="1" connectable="0">
          <mxGeometry x="0.2769" y="2" relative="1" as="geometry">
            <mxPoint x="24" y="2" as="offset" />
          </mxGeometry>
        </mxCell>
        <mxCell id="WCmOqJApZtAGnSyVygM3-324" value="PublishPayload" style="rounded=1;arcSize=10;whiteSpace=wrap;html=1;align=center;fillColor=#008a00;fontColor=#ffffff;strokeColor=#005700;shape=ellipse;perimeter=ellipsePerimeter;" parent="1" vertex="1">
          <mxGeometry x="600" y="1970" width="110" height="30" as="geometry" />
        </mxCell>
        <mxCell id="WCmOqJApZtAGnSyVygM3-325" value="Actuation" style="rounded=1;arcSize=10;whiteSpace=wrap;html=1;align=center;fillColor=#6a00ff;fontColor=#ffffff;strokeColor=#3700CC;shape=ellipse;perimeter=ellipsePerimeter;" parent="1" vertex="1">
          <mxGeometry x="240" y="1890" width="70" height="30" as="geometry" />
        </mxCell>
        <mxCell id="WCmOqJApZtAGnSyVygM3-327" value="ActuationCollection" style="rounded=1;arcSize=10;whiteSpace=wrap;html=1;align=center;fillColor=#6a00ff;fontColor=#ffffff;strokeColor=#3700CC;shape=ellipse;perimeter=ellipsePerimeter;" parent="1" vertex="1">
          <mxGeometry x="240" y="2010" width="130" height="30" as="geometry" />
        </mxCell>
        <mxCell id="WCmOqJApZtAGnSyVygM3-328" value="ObservationCollection" style="rounded=1;arcSize=10;whiteSpace=wrap;html=1;align=center;fillColor=#6a00ff;fontColor=#ffffff;strokeColor=#3700CC;shape=ellipse;perimeter=ellipsePerimeter;" parent="1" vertex="1">
          <mxGeometry x="240" y="2050" width="140" height="30" as="geometry" />
        </mxCell>
        <mxCell id="WCmOqJApZtAGnSyVygM3-331" style="edgeStyle=orthogonalEdgeStyle;rounded=0;orthogonalLoop=1;jettySize=auto;html=1;startArrow=classic;startFill=1;" parent="1" edge="1">
          <mxGeometry relative="1" as="geometry">
            <mxPoint x="145" y="1910" as="sourcePoint" />
          </mxGeometry>
        </mxCell>
        <mxCell id="WCmOqJApZtAGnSyVygM3-332" value="hasMember" style="edgeLabel;html=1;align=center;verticalAlign=middle;resizable=0;points=[];" parent="WCmOqJApZtAGnSyVygM3-331" vertex="1" connectable="0">
          <mxGeometry x="-0.5816" y="-2" relative="1" as="geometry">
            <mxPoint as="offset" />
          </mxGeometry>
        </mxCell>
        <mxCell id="WCmOqJApZtAGnSyVygM3-333" value="isMemberOf" style="edgeLabel;html=1;align=center;verticalAlign=middle;resizable=0;points=[];" parent="WCmOqJApZtAGnSyVygM3-331" vertex="1" connectable="0">
          <mxGeometry x="0.508" y="5" relative="1" as="geometry">
            <mxPoint as="offset" />
          </mxGeometry>
        </mxCell>
        <mxCell id="WCmOqJApZtAGnSyVygM3-347" value="list" style="whiteSpace=wrap;html=1;align=center;fillColor=#0050ef;fontColor=#ffffff;strokeColor=#001DBC;shape=ellipse;perimeter=ellipsePerimeter;" parent="1" vertex="1">
          <mxGeometry x="240" y="1970" width="40" height="30" as="geometry" />
        </mxCell>
        <mxCell id="WCmOqJApZtAGnSyVygM3-351" value="" style="edgeStyle=orthogonalEdgeStyle;rounded=0;orthogonalLoop=1;jettySize=auto;html=1;strokeColor=default;align=center;verticalAlign=middle;fontFamily=Helvetica;fontSize=11;fontColor=default;labelBackgroundColor=default;startArrow=none;startFill=0;endArrow=block;endFill=1;sourcePerimeterSpacing=6;targetPerimeterSpacing=6;curved=0;fillColor=default;" parent="1" source="WCmOqJApZtAGnSyVygM3-324" target="WCmOqJApZtAGnSyVygM3-325" edge="1">
          <mxGeometry relative="1" as="geometry">
            <mxPoint x="745" y="1990" as="sourcePoint" />
            <mxPoint x="275" y="1920" as="targetPoint" />
            <Array as="points">
              <mxPoint x="640" y="1905" />
            </Array>
          </mxGeometry>
        </mxCell>
        <mxCell id="WCmOqJApZtAGnSyVygM3-353" value="mqtt:payloadEncodesActuation" style="edgeLabel;html=1;align=center;verticalAlign=middle;resizable=0;points=[];rounded=0;dashed=1;strokeColor=default;fontFamily=Helvetica;fontSize=11;fontColor=default;labelBackgroundColor=default;fillColor=default;" parent="WCmOqJApZtAGnSyVygM3-351" vertex="1" connectable="0">
          <mxGeometry x="0.4454" relative="1" as="geometry">
            <mxPoint x="-18" as="offset" />
          </mxGeometry>
        </mxCell>
        <mxCell id="WCmOqJApZtAGnSyVygM3-326" value="Observation" style="rounded=1;arcSize=10;whiteSpace=wrap;html=1;align=center;fillColor=#6a00ff;fontColor=#ffffff;strokeColor=#3700CC;shape=ellipse;perimeter=ellipsePerimeter;" parent="1" vertex="1">
          <mxGeometry x="240" y="1930" width="90" height="30" as="geometry" />
        </mxCell>
        <mxCell id="WCmOqJApZtAGnSyVygM3-354" value="PublishPacket" style="rounded=1;arcSize=10;whiteSpace=wrap;html=1;align=center;fillColor=#008a00;fontColor=#ffffff;strokeColor=#005700;shape=ellipse;perimeter=ellipsePerimeter;" parent="1" vertex="1">
          <mxGeometry x="659.86" y="1860" width="130" height="30" as="geometry" />
        </mxCell>
        <mxCell id="WCmOqJApZtAGnSyVygM3-382" style="edgeStyle=orthogonalEdgeStyle;rounded=0;orthogonalLoop=1;jettySize=auto;html=1;strokeColor=default;align=center;verticalAlign=middle;fontFamily=Helvetica;fontSize=11;fontColor=default;labelBackgroundColor=default;startArrow=block;startFill=1;endArrow=block;sourcePerimeterSpacing=6;targetPerimeterSpacing=6;endFill=1;" parent="1" source="WCmOqJApZtAGnSyVygM3-359" target="WCmOqJApZtAGnSyVygM3-376" edge="1">
          <mxGeometry relative="1" as="geometry" />
        </mxCell>
        <mxCell id="WCmOqJApZtAGnSyVygM3-383" value="mqtt:hasSubject" style="edgeLabel;html=1;align=center;verticalAlign=middle;resizable=0;points=[];rounded=0;dashed=1;strokeColor=default;fontFamily=Helvetica;fontSize=11;fontColor=default;labelBackgroundColor=default;" parent="WCmOqJApZtAGnSyVygM3-382" vertex="1" connectable="0">
          <mxGeometry x="0.3935" y="1" relative="1" as="geometry">
            <mxPoint as="offset" />
          </mxGeometry>
        </mxCell>
        <mxCell id="WCmOqJApZtAGnSyVygM3-384" value="mqtt:isSubjectOf" style="edgeLabel;html=1;align=center;verticalAlign=middle;resizable=0;points=[];rounded=0;dashed=1;strokeColor=default;fontFamily=Helvetica;fontSize=11;fontColor=default;labelBackgroundColor=default;" parent="WCmOqJApZtAGnSyVygM3-382" vertex="1" connectable="0">
          <mxGeometry x="-0.7085" y="2" relative="1" as="geometry">
            <mxPoint y="-13" as="offset" />
          </mxGeometry>
        </mxCell>
        <mxCell id="SGKCxWPsG8HPYs7f4zCw-1" style="edgeStyle=orthogonalEdgeStyle;rounded=0;orthogonalLoop=1;jettySize=auto;html=1;strokeColor=default;align=center;verticalAlign=middle;fontFamily=Helvetica;fontSize=11;fontColor=default;labelBackgroundColor=default;startArrow=block;startFill=1;endArrow=block;endFill=1;sourcePerimeterSpacing=6;targetPerimeterSpacing=6;" edge="1" parent="1" source="WCmOqJApZtAGnSyVygM3-359" target="WCmOqJApZtAGnSyVygM3-375">
          <mxGeometry relative="1" as="geometry">
            <Array as="points">
              <mxPoint x="1000" y="1195" />
              <mxPoint x="1000" y="1145" />
            </Array>
          </mxGeometry>
        </mxCell>
        <mxCell id="SGKCxWPsG8HPYs7f4zCw-7" value="mqtt:has&lt;br&gt;FOISubject" style="edgeLabel;html=1;align=center;verticalAlign=middle;resizable=0;points=[];" vertex="1" connectable="0" parent="SGKCxWPsG8HPYs7f4zCw-1">
          <mxGeometry x="0.045" y="-1" relative="1" as="geometry">
            <mxPoint x="-42" as="offset" />
          </mxGeometry>
        </mxCell>
        <mxCell id="SGKCxWPsG8HPYs7f4zCw-11" value="mqtt:isFOI&lt;br&gt;SubjectOf" style="edgeLabel;html=1;align=center;verticalAlign=middle;resizable=0;points=[];" vertex="1" connectable="0" parent="SGKCxWPsG8HPYs7f4zCw-1">
          <mxGeometry x="-0.6562" y="3" relative="1" as="geometry">
            <mxPoint x="8" y="-3" as="offset" />
          </mxGeometry>
        </mxCell>
        <mxCell id="SGKCxWPsG8HPYs7f4zCw-3" style="edgeStyle=orthogonalEdgeStyle;rounded=0;orthogonalLoop=1;jettySize=auto;html=1;strokeColor=default;align=center;verticalAlign=middle;fontFamily=Helvetica;fontSize=11;fontColor=default;labelBackgroundColor=default;startArrow=block;startFill=1;endArrow=block;endFill=1;sourcePerimeterSpacing=6;targetPerimeterSpacing=6;" edge="1" parent="1" source="WCmOqJApZtAGnSyVygM3-359" target="SGKCxWPsG8HPYs7f4zCw-23">
          <mxGeometry relative="1" as="geometry">
            <mxPoint x="1210" y="1310" as="targetPoint" />
            <Array as="points">
              <mxPoint x="1280" y="1270" />
              <mxPoint x="1280" y="1270" />
            </Array>
          </mxGeometry>
        </mxCell>
        <mxCell id="SGKCxWPsG8HPYs7f4zCw-8" value="mqtt:hasActsObsSubject" style="edgeLabel;html=1;align=center;verticalAlign=middle;resizable=0;points=[];" vertex="1" connectable="0" parent="SGKCxWPsG8HPYs7f4zCw-3">
          <mxGeometry x="0.6503" relative="1" as="geometry">
            <mxPoint y="-12" as="offset" />
          </mxGeometry>
        </mxCell>
        <mxCell id="SGKCxWPsG8HPYs7f4zCw-10" value="mqtt:isActObsSubjectOf" style="edgeLabel;html=1;align=center;verticalAlign=middle;resizable=0;points=[];" vertex="1" connectable="0" parent="SGKCxWPsG8HPYs7f4zCw-3">
          <mxGeometry x="-0.3995" relative="1" as="geometry">
            <mxPoint as="offset" />
          </mxGeometry>
        </mxCell>
        <mxCell id="SGKCxWPsG8HPYs7f4zCw-4" style="edgeStyle=orthogonalEdgeStyle;rounded=0;orthogonalLoop=1;jettySize=auto;html=1;strokeColor=default;align=center;verticalAlign=middle;fontFamily=Helvetica;fontSize=11;fontColor=default;labelBackgroundColor=default;startArrow=block;startFill=1;endArrow=block;endFill=1;sourcePerimeterSpacing=6;targetPerimeterSpacing=6;" edge="1" parent="1" source="WCmOqJApZtAGnSyVygM3-359" target="WCmOqJApZtAGnSyVygM3-374">
          <mxGeometry relative="1" as="geometry">
            <Array as="points">
              <mxPoint x="1560" y="1195" />
              <mxPoint x="1560" y="1145" />
            </Array>
          </mxGeometry>
        </mxCell>
        <mxCell id="SGKCxWPsG8HPYs7f4zCw-9" value="mqtt:has&lt;br&gt;PropertySubject" style="edgeLabel;html=1;align=center;verticalAlign=middle;resizable=0;points=[];rounded=0;strokeColor=default;fontFamily=Helvetica;fontSize=11;fontColor=default;labelBackgroundColor=default;" vertex="1" connectable="0" parent="SGKCxWPsG8HPYs7f4zCw-4">
          <mxGeometry x="-0.1829" y="-1" relative="1" as="geometry">
            <mxPoint x="-77" y="-1" as="offset" />
          </mxGeometry>
        </mxCell>
        <mxCell id="SGKCxWPsG8HPYs7f4zCw-12" value="mqtt:isProperty&lt;br&gt;SubjectOf" style="edgeLabel;html=1;align=center;verticalAlign=middle;resizable=0;points=[];rounded=0;strokeColor=default;fontFamily=Helvetica;fontSize=11;fontColor=default;labelBackgroundColor=default;" vertex="1" connectable="0" parent="SGKCxWPsG8HPYs7f4zCw-4">
          <mxGeometry x="0.6414" y="1" relative="1" as="geometry">
            <mxPoint x="-48" y="32" as="offset" />
          </mxGeometry>
        </mxCell>
        <mxCell id="WCmOqJApZtAGnSyVygM3-359" value="Topic" style="rounded=1;arcSize=10;whiteSpace=wrap;html=1;align=center;fillColor=#008a00;fontColor=#ffffff;strokeColor=#005700;shape=ellipse;perimeter=ellipsePerimeter;" parent="1" vertex="1">
          <mxGeometry x="1254.8600000000001" y="1180" width="50" height="30" as="geometry" />
        </mxCell>
        <mxCell id="WCmOqJApZtAGnSyVygM3-388" style="edgeStyle=orthogonalEdgeStyle;rounded=0;orthogonalLoop=1;jettySize=auto;html=1;strokeColor=default;align=center;verticalAlign=middle;fontFamily=Helvetica;fontSize=11;fontColor=default;labelBackgroundColor=default;endArrow=block;sourcePerimeterSpacing=6;targetPerimeterSpacing=6;dashed=1;endFill=0;" parent="1" source="WCmOqJApZtAGnSyVygM3-360" target="WCmOqJApZtAGnSyVygM3-376" edge="1">
          <mxGeometry relative="1" as="geometry">
            <Array as="points">
              <mxPoint x="1400" y="1075" />
              <mxPoint x="1400" y="1030" />
              <mxPoint x="1310" y="1030" />
            </Array>
          </mxGeometry>
        </mxCell>
        <mxCell id="SGKCxWPsG8HPYs7f4zCw-43" style="edgeStyle=orthogonalEdgeStyle;rounded=0;orthogonalLoop=1;jettySize=auto;html=1;dashed=1;strokeColor=default;align=center;verticalAlign=middle;fontFamily=Helvetica;fontSize=11;fontColor=default;labelBackgroundColor=default;endArrow=diamond;endFill=0;sourcePerimeterSpacing=6;targetPerimeterSpacing=6;" edge="1" parent="1" source="WCmOqJApZtAGnSyVygM3-360" target="SGKCxWPsG8HPYs7f4zCw-23">
          <mxGeometry relative="1" as="geometry">
            <mxPoint x="1320" y="1310" as="targetPoint" />
            <Array as="points">
              <mxPoint x="1600" y="1075" />
              <mxPoint x="1600" y="1320" />
            </Array>
          </mxGeometry>
        </mxCell>
        <mxCell id="WCmOqJApZtAGnSyVygM3-360" value="Actuation" style="rounded=1;arcSize=10;whiteSpace=wrap;html=1;align=center;fillColor=#6a00ff;fontColor=#ffffff;strokeColor=#3700CC;shape=ellipse;perimeter=ellipsePerimeter;" parent="1" vertex="1">
          <mxGeometry x="1440" y="1060" width="70" height="30" as="geometry" />
        </mxCell>
        <mxCell id="WCmOqJApZtAGnSyVygM3-389" style="edgeStyle=orthogonalEdgeStyle;rounded=0;orthogonalLoop=1;jettySize=auto;html=1;strokeColor=default;align=center;verticalAlign=middle;fontFamily=Helvetica;fontSize=11;fontColor=default;labelBackgroundColor=default;endArrow=block;sourcePerimeterSpacing=6;targetPerimeterSpacing=6;dashed=1;endFill=0;" parent="1" source="WCmOqJApZtAGnSyVygM3-361" target="WCmOqJApZtAGnSyVygM3-376" edge="1">
          <mxGeometry relative="1" as="geometry">
            <mxPoint x="1389.8600000000004" y="1000.9999999999998" as="sourcePoint" />
            <mxPoint x="1261.0199999999998" y="1054" as="targetPoint" />
            <Array as="points">
              <mxPoint x="1290" y="995" />
            </Array>
          </mxGeometry>
        </mxCell>
        <mxCell id="WCmOqJApZtAGnSyVygM3-361" value="ActuationCollection" style="rounded=1;arcSize=10;whiteSpace=wrap;html=1;align=center;fillColor=#6a00ff;fontColor=#ffffff;strokeColor=#3700CC;shape=ellipse;perimeter=ellipsePerimeter;" parent="1" vertex="1">
          <mxGeometry x="1380" y="980" width="130" height="30" as="geometry" />
        </mxCell>
        <mxCell id="WCmOqJApZtAGnSyVygM3-385" style="edgeStyle=orthogonalEdgeStyle;rounded=0;orthogonalLoop=1;jettySize=auto;html=1;strokeColor=default;align=center;verticalAlign=middle;fontFamily=Helvetica;fontSize=11;fontColor=default;labelBackgroundColor=default;endArrow=block;sourcePerimeterSpacing=6;targetPerimeterSpacing=6;dashed=1;endFill=0;" parent="1" source="WCmOqJApZtAGnSyVygM3-362" target="WCmOqJApZtAGnSyVygM3-376" edge="1">
          <mxGeometry relative="1" as="geometry">
            <Array as="points">
              <mxPoint x="1270" y="995" />
            </Array>
          </mxGeometry>
        </mxCell>
        <mxCell id="SGKCxWPsG8HPYs7f4zCw-41" style="edgeStyle=orthogonalEdgeStyle;rounded=0;orthogonalLoop=1;jettySize=auto;html=1;dashed=1;strokeColor=default;align=center;verticalAlign=middle;fontFamily=Helvetica;fontSize=11;fontColor=default;labelBackgroundColor=default;endArrow=diamond;endFill=0;sourcePerimeterSpacing=6;targetPerimeterSpacing=6;" edge="1" parent="1" source="WCmOqJApZtAGnSyVygM3-362" target="SGKCxWPsG8HPYs7f4zCw-23">
          <mxGeometry relative="1" as="geometry">
            <mxPoint x="1270" y="1300" as="targetPoint" />
            <Array as="points">
              <mxPoint x="920" y="995" />
              <mxPoint x="920" y="1360" />
              <mxPoint x="1270" y="1360" />
            </Array>
          </mxGeometry>
        </mxCell>
        <mxCell id="WCmOqJApZtAGnSyVygM3-362" value="ObservationCollection" style="rounded=1;arcSize=10;whiteSpace=wrap;html=1;align=center;fillColor=#6a00ff;fontColor=#ffffff;strokeColor=#3700CC;shape=ellipse;perimeter=ellipsePerimeter;" parent="1" vertex="1">
          <mxGeometry x="1030" y="980" width="140" height="30" as="geometry" />
        </mxCell>
        <mxCell id="WCmOqJApZtAGnSyVygM3-386" style="edgeStyle=orthogonalEdgeStyle;rounded=0;orthogonalLoop=1;jettySize=auto;html=1;strokeColor=default;align=center;verticalAlign=middle;fontFamily=Helvetica;fontSize=11;fontColor=default;labelBackgroundColor=default;endArrow=block;sourcePerimeterSpacing=6;targetPerimeterSpacing=6;dashed=1;endFill=0;" parent="1" source="WCmOqJApZtAGnSyVygM3-363" target="WCmOqJApZtAGnSyVygM3-376" edge="1">
          <mxGeometry relative="1" as="geometry">
            <Array as="points">
              <mxPoint x="1160" y="1075" />
              <mxPoint x="1160" y="1030" />
              <mxPoint x="1250" y="1030" />
            </Array>
          </mxGeometry>
        </mxCell>
        <mxCell id="WCmOqJApZtAGnSyVygM3-363" value="Observation" style="rounded=1;arcSize=10;whiteSpace=wrap;html=1;align=center;fillColor=#6a00ff;fontColor=#ffffff;strokeColor=#3700CC;shape=ellipse;perimeter=ellipsePerimeter;" parent="1" vertex="1">
          <mxGeometry x="1030" y="1060" width="90" height="30" as="geometry" />
        </mxCell>
        <mxCell id="WCmOqJApZtAGnSyVygM3-390" style="edgeStyle=orthogonalEdgeStyle;rounded=0;orthogonalLoop=1;jettySize=auto;html=1;strokeColor=default;align=center;verticalAlign=middle;fontFamily=Helvetica;fontSize=11;fontColor=default;labelBackgroundColor=default;endArrow=block;sourcePerimeterSpacing=6;targetPerimeterSpacing=6;dashed=1;endFill=0;" parent="1" source="WCmOqJApZtAGnSyVygM3-374" target="WCmOqJApZtAGnSyVygM3-376" edge="1">
          <mxGeometry relative="1" as="geometry">
            <Array as="points">
              <mxPoint x="1380" y="1075" />
            </Array>
          </mxGeometry>
        </mxCell>
        <mxCell id="WCmOqJApZtAGnSyVygM3-374" value="Property" style="rounded=1;arcSize=10;whiteSpace=wrap;html=1;align=center;fillColor=#6a00ff;fontColor=#ffffff;strokeColor=#3700CC;shape=ellipse;perimeter=ellipsePerimeter;" parent="1" vertex="1">
          <mxGeometry x="1440.0000000000002" y="1130" width="70" height="30" as="geometry" />
        </mxCell>
        <mxCell id="WCmOqJApZtAGnSyVygM3-387" style="edgeStyle=orthogonalEdgeStyle;rounded=0;orthogonalLoop=1;jettySize=auto;html=1;strokeColor=default;align=center;verticalAlign=middle;fontFamily=Helvetica;fontSize=11;fontColor=default;labelBackgroundColor=default;endArrow=block;sourcePerimeterSpacing=6;targetPerimeterSpacing=6;dashed=1;endFill=0;" parent="1" source="WCmOqJApZtAGnSyVygM3-375" target="WCmOqJApZtAGnSyVygM3-376" edge="1">
          <mxGeometry relative="1" as="geometry">
            <Array as="points">
              <mxPoint x="1180" y="1145" />
              <mxPoint x="1180" y="1075" />
            </Array>
          </mxGeometry>
        </mxCell>
        <mxCell id="WCmOqJApZtAGnSyVygM3-375" value="FeatureOfInterest" style="rounded=1;arcSize=10;whiteSpace=wrap;html=1;align=center;fillColor=#6a00ff;fontColor=#ffffff;strokeColor=#3700CC;shape=ellipse;perimeter=ellipsePerimeter;" parent="1" vertex="1">
          <mxGeometry x="1029.8600000000001" y="1130" width="120" height="30" as="geometry" />
        </mxCell>
        <mxCell id="WCmOqJApZtAGnSyVygM3-376" value="TopicSubject" style="rounded=1;arcSize=10;whiteSpace=wrap;html=1;align=center;fillColor=#008a00;fontColor=#ffffff;strokeColor=#005700;shape=ellipse;perimeter=ellipsePerimeter;" parent="1" vertex="1">
          <mxGeometry x="1224.8600000000001" y="1060" width="110" height="30" as="geometry" />
        </mxCell>
        <mxCell id="WCmOqJApZtAGnSyVygM3-394" value="QuantityValue" style="whiteSpace=wrap;html=1;align=center;shape=ellipse;perimeter=ellipsePerimeter;" parent="1" vertex="1">
          <mxGeometry x="1094.86" y="2730" width="100" height="30" as="geometry" />
        </mxCell>
        <mxCell id="WCmOqJApZtAGnSyVygM3-397" value="unsingedShort" style="whiteSpace=wrap;html=1;align=center;fillColor=#d80073;fontColor=#ffffff;strokeColor=#A50040;" parent="1" vertex="1">
          <mxGeometry x="1094.86" y="3030" width="100" height="30" as="geometry" />
        </mxCell>
        <mxCell id="WCmOqJApZtAGnSyVygM3-401" value="boolean" style="whiteSpace=wrap;html=1;align=center;fillColor=#d80073;fontColor=#ffffff;strokeColor=#A50040;" parent="1" vertex="1">
          <mxGeometry x="240" y="1730" width="70" height="30" as="geometry" />
        </mxCell>
        <mxCell id="WCmOqJApZtAGnSyVygM3-404" value="boolean" style="whiteSpace=wrap;html=1;align=center;fillColor=#d80073;fontColor=#ffffff;strokeColor=#A50040;" parent="1" vertex="1">
          <mxGeometry x="485" y="1710" width="70" height="30" as="geometry" />
        </mxCell>
        <mxCell id="WCmOqJApZtAGnSyVygM3-408" value="string" style="whiteSpace=wrap;html=1;align=center;fillColor=#d80073;fontColor=#ffffff;strokeColor=#A50040;" parent="1" vertex="1">
          <mxGeometry x="874.86" y="2090" width="50" height="30" as="geometry" />
        </mxCell>
        <mxCell id="Ke48lVp7YKkE_y9UDL5--17" value="" style="rounded=0;whiteSpace=wrap;html=1;" parent="1" vertex="1">
          <mxGeometry x="750" y="590" width="100.14" height="130" as="geometry" />
        </mxCell>
        <mxCell id="WCmOqJApZtAGnSyVygM3-409" value="string" style="whiteSpace=wrap;html=1;align=center;fillColor=#d80073;fontColor=#ffffff;strokeColor=#A50040;" parent="1" vertex="1">
          <mxGeometry x="400" y="2140" width="50" height="30" as="geometry" />
        </mxCell>
        <mxCell id="WCmOqJApZtAGnSyVygM3-410" value="string" style="whiteSpace=wrap;html=1;align=center;fillColor=#d80073;fontColor=#ffffff;strokeColor=#A50040;" parent="1" vertex="1">
          <mxGeometry x="400" y="2090" width="50" height="30" as="geometry" />
        </mxCell>
        <mxCell id="WCmOqJApZtAGnSyVygM3-411" value="string" style="whiteSpace=wrap;html=1;align=center;fillColor=#d80073;fontColor=#ffffff;strokeColor=#A50040;" parent="1" vertex="1">
          <mxGeometry x="875" y="2140" width="50" height="30" as="geometry" />
        </mxCell>
        <mxCell id="Ke48lVp7YKkE_y9UDL5--1" value="" style="rounded=1;arcSize=10;whiteSpace=wrap;html=1;align=center;fillColor=#1ba1e2;fontColor=#ffffff;strokeColor=#006EAF;" parent="1" vertex="1">
          <mxGeometry x="760" y="600" width="40" height="30" as="geometry" />
        </mxCell>
        <mxCell id="Ke48lVp7YKkE_y9UDL5--2" value="" style="whiteSpace=wrap;html=1;align=center;fillColor=#d80073;fontColor=#ffffff;strokeColor=#A50040;" parent="1" vertex="1">
          <mxGeometry x="760" y="680" width="40" height="30" as="geometry" />
        </mxCell>
        <mxCell id="Ke48lVp7YKkE_y9UDL5--3" value="" style="rounded=1;arcSize=10;whiteSpace=wrap;html=1;align=center;fillColor=#008a00;fontColor=#ffffff;strokeColor=#005700;" parent="1" vertex="1">
          <mxGeometry x="760" y="640" width="40" height="30" as="geometry" />
        </mxCell>
        <mxCell id="Ke48lVp7YKkE_y9UDL5--5" value="mqv" style="text;html=1;align=center;verticalAlign=middle;resizable=0;points=[];autosize=1;strokeColor=none;fillColor=none;" parent="1" vertex="1">
          <mxGeometry x="800" y="600" width="50" height="30" as="geometry" />
        </mxCell>
        <mxCell id="Ke48lVp7YKkE_y9UDL5--9" value="xsd" style="text;html=1;align=center;verticalAlign=middle;resizable=0;points=[];autosize=1;strokeColor=none;fillColor=none;" parent="1" vertex="1">
          <mxGeometry x="805" y="680" width="40" height="30" as="geometry" />
        </mxCell>
        <mxCell id="Ke48lVp7YKkE_y9UDL5--10" value="mqtt" style="text;html=1;align=center;verticalAlign=middle;resizable=0;points=[];autosize=1;strokeColor=none;fillColor=none;" parent="1" vertex="1">
          <mxGeometry x="800" y="640" width="50" height="30" as="geometry" />
        </mxCell>
        <mxCell id="Ke48lVp7YKkE_y9UDL5--18" value="" style="rounded=0;whiteSpace=wrap;html=1;" parent="1" vertex="1">
          <mxGeometry x="1180" y="920" width="192.55" height="50" as="geometry" />
        </mxCell>
        <mxCell id="Ke48lVp7YKkE_y9UDL5--22" value="mqtt" style="text;html=1;align=center;verticalAlign=middle;resizable=0;points=[];autosize=1;strokeColor=none;fillColor=none;" parent="1" vertex="1">
          <mxGeometry x="1227.41" y="930" width="50" height="30" as="geometry" />
        </mxCell>
        <mxCell id="Ke48lVp7YKkE_y9UDL5--25" value="" style="rounded=1;arcSize=10;whiteSpace=wrap;html=1;align=center;fillColor=#6a00ff;fontColor=#ffffff;strokeColor=#3700CC;" parent="1" vertex="1">
          <mxGeometry x="1277.4099999999999" y="930" width="40" height="30" as="geometry" />
        </mxCell>
        <mxCell id="Ke48lVp7YKkE_y9UDL5--27" value="sosa" style="text;html=1;align=center;verticalAlign=middle;resizable=0;points=[];autosize=1;strokeColor=none;fillColor=none;" parent="1" vertex="1">
          <mxGeometry x="1317.41" y="930" width="50" height="30" as="geometry" />
        </mxCell>
        <mxCell id="Ke48lVp7YKkE_y9UDL5--28" value="" style="rounded=0;whiteSpace=wrap;html=1;" parent="1" vertex="1">
          <mxGeometry x="964.86" y="1520" width="195.14" height="90" as="geometry" />
        </mxCell>
        <mxCell id="Ke48lVp7YKkE_y9UDL5--29" value="" style="rounded=1;arcSize=10;whiteSpace=wrap;html=1;align=center;fillColor=#1ba1e2;fontColor=#ffffff;strokeColor=#006EAF;" parent="1" vertex="1">
          <mxGeometry x="974.86" y="1530" width="40" height="30" as="geometry" />
        </mxCell>
        <mxCell id="Ke48lVp7YKkE_y9UDL5--30" value="" style="whiteSpace=wrap;html=1;align=center;fillColor=#d80073;fontColor=#ffffff;strokeColor=#A50040;" parent="1" vertex="1">
          <mxGeometry x="974.8599999999999" y="1570" width="40" height="30" as="geometry" />
        </mxCell>
        <mxCell id="Ke48lVp7YKkE_y9UDL5--31" value="" style="rounded=1;arcSize=10;whiteSpace=wrap;html=1;align=center;fillColor=#008a00;fontColor=#ffffff;strokeColor=#005700;" parent="1" vertex="1">
          <mxGeometry x="1064.86" y="1570" width="40" height="30" as="geometry" />
        </mxCell>
        <mxCell id="Ke48lVp7YKkE_y9UDL5--32" value="mqv" style="text;html=1;align=center;verticalAlign=middle;resizable=0;points=[];autosize=1;strokeColor=none;fillColor=none;" parent="1" vertex="1">
          <mxGeometry x="1014.86" y="1530" width="50" height="30" as="geometry" />
        </mxCell>
        <mxCell id="Ke48lVp7YKkE_y9UDL5--33" value="xsd" style="text;html=1;align=center;verticalAlign=middle;resizable=0;points=[];autosize=1;strokeColor=none;fillColor=none;" parent="1" vertex="1">
          <mxGeometry x="1019.86" y="1570" width="40" height="30" as="geometry" />
        </mxCell>
        <mxCell id="Ke48lVp7YKkE_y9UDL5--34" value="mqtt" style="text;html=1;align=center;verticalAlign=middle;resizable=0;points=[];autosize=1;strokeColor=none;fillColor=none;" parent="1" vertex="1">
          <mxGeometry x="1104.86" y="1570" width="50" height="30" as="geometry" />
        </mxCell>
        <mxCell id="Ke48lVp7YKkE_y9UDL5--35" value="" style="rounded=1;arcSize=10;whiteSpace=wrap;html=1;align=center;fillColor=#6a00ff;fontColor=#ffffff;strokeColor=#3700CC;" parent="1" vertex="1">
          <mxGeometry x="1064.8600000000001" y="1530" width="40" height="30" as="geometry" />
        </mxCell>
        <mxCell id="Ke48lVp7YKkE_y9UDL5--36" value="sosa" style="text;html=1;align=center;verticalAlign=middle;resizable=0;points=[];autosize=1;strokeColor=none;fillColor=none;" parent="1" vertex="1">
          <mxGeometry x="1104.8600000000001" y="1530" width="50" height="30" as="geometry" />
        </mxCell>
        <mxCell id="Ke48lVp7YKkE_y9UDL5--46" value="" style="rounded=0;whiteSpace=wrap;html=1;" parent="1" vertex="1">
          <mxGeometry x="980" y="2470" width="360.21" height="50" as="geometry" />
        </mxCell>
        <mxCell id="Ke48lVp7YKkE_y9UDL5--47" value="" style="rounded=1;arcSize=10;whiteSpace=wrap;html=1;align=center;fillColor=#1ba1e2;fontColor=#ffffff;strokeColor=#006EAF;" parent="1" vertex="1">
          <mxGeometry x="989.86" y="2480" width="40" height="30" as="geometry" />
        </mxCell>
        <mxCell id="Ke48lVp7YKkE_y9UDL5--49" value="" style="rounded=1;arcSize=10;whiteSpace=wrap;html=1;align=center;fillColor=#008a00;fontColor=#ffffff;strokeColor=#005700;" parent="1" vertex="1">
          <mxGeometry x="1080.07" y="2480" width="40" height="30" as="geometry" />
        </mxCell>
        <mxCell id="Ke48lVp7YKkE_y9UDL5--50" value="mqv" style="text;html=1;align=center;verticalAlign=middle;resizable=0;points=[];autosize=1;strokeColor=none;fillColor=none;" parent="1" vertex="1">
          <mxGeometry x="1029.86" y="2480" width="50" height="30" as="geometry" />
        </mxCell>
        <mxCell id="Ke48lVp7YKkE_y9UDL5--52" value="mqtt" style="text;html=1;align=center;verticalAlign=middle;resizable=0;points=[];autosize=1;strokeColor=none;fillColor=none;" parent="1" vertex="1">
          <mxGeometry x="1120.07" y="2480" width="50" height="30" as="geometry" />
        </mxCell>
        <mxCell id="Ke48lVp7YKkE_y9UDL5--56" value="" style="whiteSpace=wrap;html=1;align=center;" parent="1" vertex="1">
          <mxGeometry x="1170.0700000000002" y="2480" width="40.14" height="30" as="geometry" />
        </mxCell>
        <mxCell id="Ke48lVp7YKkE_y9UDL5--59" value="qudt" style="text;html=1;align=center;verticalAlign=middle;resizable=0;points=[];autosize=1;strokeColor=none;fillColor=none;" parent="1" vertex="1">
          <mxGeometry x="1210.21" y="2480" width="50" height="30" as="geometry" />
        </mxCell>
        <mxCell id="Ke48lVp7YKkE_y9UDL5--61" value="" style="whiteSpace=wrap;html=1;align=center;fillColor=#d80073;fontColor=#ffffff;strokeColor=#A50040;" parent="1" vertex="1">
          <mxGeometry x="1260.21" y="2480" width="40" height="30" as="geometry" />
        </mxCell>
        <mxCell id="Ke48lVp7YKkE_y9UDL5--62" value="xsd" style="text;html=1;align=center;verticalAlign=middle;resizable=0;points=[];autosize=1;strokeColor=none;fillColor=none;" parent="1" vertex="1">
          <mxGeometry x="1300.21" y="2480" width="40" height="30" as="geometry" />
        </mxCell>
        <mxCell id="drOfDbMGKrxvBRl9nIdD-1" value="" style="rounded=1;arcSize=10;whiteSpace=wrap;html=1;align=center;fillColor=#008a00;fontColor=#ffffff;strokeColor=#005700;" parent="1" vertex="1">
          <mxGeometry x="1187.41" y="930" width="40" height="30" as="geometry" />
        </mxCell>
        <mxCell id="SGKCxWPsG8HPYs7f4zCw-40" style="edgeStyle=orthogonalEdgeStyle;rounded=0;orthogonalLoop=1;jettySize=auto;html=1;dashed=1;strokeColor=default;align=center;verticalAlign=middle;fontFamily=Helvetica;fontSize=11;fontColor=default;labelBackgroundColor=default;endArrow=diamond;endFill=0;sourcePerimeterSpacing=6;targetPerimeterSpacing=6;" edge="1" parent="1" source="WCmOqJApZtAGnSyVygM3-363" target="SGKCxWPsG8HPYs7f4zCw-23">
          <mxGeometry relative="1" as="geometry">
            <mxPoint x="1250" y="1310" as="targetPoint" />
            <Array as="points">
              <mxPoint x="960" y="1075" />
              <mxPoint x="960" y="1320" />
            </Array>
          </mxGeometry>
        </mxCell>
        <mxCell id="SGKCxWPsG8HPYs7f4zCw-42" style="edgeStyle=orthogonalEdgeStyle;rounded=0;orthogonalLoop=1;jettySize=auto;html=1;dashed=1;strokeColor=default;align=center;verticalAlign=middle;fontFamily=Helvetica;fontSize=11;fontColor=default;labelBackgroundColor=default;endArrow=diamond;endFill=0;sourcePerimeterSpacing=6;targetPerimeterSpacing=6;" edge="1" parent="1" source="WCmOqJApZtAGnSyVygM3-361" target="SGKCxWPsG8HPYs7f4zCw-23">
          <mxGeometry relative="1" as="geometry">
            <mxPoint x="1310" y="1290" as="targetPoint" />
            <Array as="points">
              <mxPoint x="1640" y="995" />
              <mxPoint x="1640" y="1360" />
              <mxPoint x="1290" y="1360" />
            </Array>
          </mxGeometry>
        </mxCell>
        <mxCell id="SGKCxWPsG8HPYs7f4zCw-23" value="&lt;span style=&quot;color: rgba(0, 0, 0, 0); font-family: monospace; font-size: 0px; text-align: start; text-wrap-mode: nowrap;&quot;&gt;%3CmxGraphModel%3E%3Croot%3E%3CmxCell%20id%3D%220%22%2F%3E%3CmxCell%20id%3D%221%22%20parent%3D%220%22%2F%3E%3CmxCell%20id%3D%222%22%20value%3D%22%22%20style%3D%22group%22%20vertex%3D%221%22%20connectable%3D%220%22%20parent%3D%221%22%3E%3CmxGeometry%20x%3D%22990%22%20y%3D%22910%22%20width%3D%2242.46%22%20height%3D%2227.6%22%20as%3D%22geometry%22%2F%3E%3C%2FmxCell%3E%3CmxCell%20id%3D%223%22%20value%3D%22%22%20style%3D%22ellipse%3BwhiteSpace%3Dwrap%3Bhtml%3D1%3Baspect%3Dfixed%3BfillColor%3Dnone%3Bmovable%3D1%3Bresizable%3D1%3Brotatable%3D1%3Bdeletable%3D1%3Beditable%3D1%3Blocked%3D0%3Bconnectable%3D1%3B%22%20vertex%3D%221%22%20parent%3D%222%22%3E%3CmxGeometry%20width%3D%2225.2963665940416%22%20height%3D%2225.2963665940416%22%20as%3D%22geometry%22%2F%3E%3C%2FmxCell%3E%3CmxCell%20id%3D%224%22%20value%3D%22%22%20style%3D%22ellipse%3BwhiteSpace%3Dwrap%3Bhtml%3D1%3Baspect%3Dfixed%3BfillColor%3Dnone%3Bmovable%3D1%3Bresizable%3D1%3Brotatable%3D1%3Bdeletable%3D1%3Beditable%3D1%3Blocked%3D0%3Bconnectable%3D1%3B%22%20vertex%3D%221%22%20parent%3D%222%22%3E%3CmxGeometry%20x%3D%2214.567424786088878%22%20width%3D%2225.2963665940416%22%20height%3D%2225.2963665940416%22%20as%3D%22geometry%22%2F%3E%3C%2FmxCell%3E%3CmxCell%20id%3D%225%22%20value%3D%22%E2%88%AA%22%20style%3D%22text%3Bhtml%3D1%3Balign%3Dcenter%3BverticalAlign%3Dmiddle%3Bresizable%3D1%3Bpoints%3D%5B%5D%3Bautosize%3D1%3BstrokeColor%3Dnone%3BfillColor%3Dnone%3Bmovable%3D1%3Brotatable%3D1%3Bdeletable%3D1%3Beditable%3D1%3Blocked%3D0%3Bconnectable%3D1%3B%22%20vertex%3D%221%22%20parent%3D%222%22%3E%3CmxGeometry%20x%3D%2211.638469997239891%22%20y%3D%225.1035442412258725%22%20width%3D%2217.579354126414565%22%20height%3D%2217.39495798319327%22%20as%3D%22geometry%22%2F%3E%3C%2FmxCell%3E%3C%2Froot%3E%3C%2FmxGraphModel%3E&lt;/span&gt;" style="rounded=1;arcSize=10;whiteSpace=wrap;html=1;align=center;fillColor=default;fontColor=default;strokeColor=default;shape=ellipse;perimeter=ellipsePerimeter;verticalAlign=middle;fontFamily=Helvetica;fontSize=12;container=0;movable=1;resizable=1;rotatable=1;deletable=1;editable=1;locked=0;connectable=1;" vertex="1" parent="1">
          <mxGeometry x="1260.2099999999998" y="1300" width="40.14" height="35" as="geometry" />
        </mxCell>
        <mxCell id="SGKCxWPsG8HPYs7f4zCw-36" value="" style="ellipse;whiteSpace=wrap;html=1;aspect=fixed;fillColor=none;movable=1;resizable=1;rotatable=1;deletable=1;editable=1;locked=0;connectable=1;fontSize=12;strokeWidth=0.5;container=0;" vertex="1" parent="1">
          <mxGeometry x="1272.55" y="1312.5" width="10.000000000000025" height="10.000000000000025" as="geometry" />
        </mxCell>
        <mxCell id="SGKCxWPsG8HPYs7f4zCw-37" value="" style="ellipse;whiteSpace=wrap;html=1;aspect=fixed;fillColor=none;movable=1;resizable=1;rotatable=1;deletable=1;editable=1;locked=0;connectable=1;strokeWidth=0.5;container=0;" vertex="1" parent="1">
          <mxGeometry x="1277.866194248333" y="1312.5" width="10.000000000000025" height="10.000000000000025" as="geometry" />
        </mxCell>
        <mxCell id="SGKCxWPsG8HPYs7f4zCw-53" value="" style="group" vertex="1" connectable="0" parent="1">
          <mxGeometry x="919.9300000000001" y="1950" width="40.1400000000001" height="35" as="geometry" />
        </mxCell>
        <mxCell id="SGKCxWPsG8HPYs7f4zCw-50" value="&lt;span style=&quot;color: rgba(0, 0, 0, 0); font-family: monospace; font-size: 0px; text-align: start; text-wrap-mode: nowrap;&quot;&gt;%3CmxGraphModel%3E%3Croot%3E%3CmxCell%20id%3D%220%22%2F%3E%3CmxCell%20id%3D%221%22%20parent%3D%220%22%2F%3E%3CmxCell%20id%3D%222%22%20value%3D%22%22%20style%3D%22group%22%20vertex%3D%221%22%20connectable%3D%220%22%20parent%3D%221%22%3E%3CmxGeometry%20x%3D%22990%22%20y%3D%22910%22%20width%3D%2242.46%22%20height%3D%2227.6%22%20as%3D%22geometry%22%2F%3E%3C%2FmxCell%3E%3CmxCell%20id%3D%223%22%20value%3D%22%22%20style%3D%22ellipse%3BwhiteSpace%3Dwrap%3Bhtml%3D1%3Baspect%3Dfixed%3BfillColor%3Dnone%3Bmovable%3D1%3Bresizable%3D1%3Brotatable%3D1%3Bdeletable%3D1%3Beditable%3D1%3Blocked%3D0%3Bconnectable%3D1%3B%22%20vertex%3D%221%22%20parent%3D%222%22%3E%3CmxGeometry%20width%3D%2225.2963665940416%22%20height%3D%2225.2963665940416%22%20as%3D%22geometry%22%2F%3E%3C%2FmxCell%3E%3CmxCell%20id%3D%224%22%20value%3D%22%22%20style%3D%22ellipse%3BwhiteSpace%3Dwrap%3Bhtml%3D1%3Baspect%3Dfixed%3BfillColor%3Dnone%3Bmovable%3D1%3Bresizable%3D1%3Brotatable%3D1%3Bdeletable%3D1%3Beditable%3D1%3Blocked%3D0%3Bconnectable%3D1%3B%22%20vertex%3D%221%22%20parent%3D%222%22%3E%3CmxGeometry%20x%3D%2214.567424786088878%22%20width%3D%2225.2963665940416%22%20height%3D%2225.2963665940416%22%20as%3D%22geometry%22%2F%3E%3C%2FmxCell%3E%3CmxCell%20id%3D%225%22%20value%3D%22%E2%88%AA%22%20style%3D%22text%3Bhtml%3D1%3Balign%3Dcenter%3BverticalAlign%3Dmiddle%3Bresizable%3D1%3Bpoints%3D%5B%5D%3Bautosize%3D1%3BstrokeColor%3Dnone%3BfillColor%3Dnone%3Bmovable%3D1%3Brotatable%3D1%3Bdeletable%3D1%3Beditable%3D1%3Blocked%3D0%3Bconnectable%3D1%3B%22%20vertex%3D%221%22%20parent%3D%222%22%3E%3CmxGeometry%20x%3D%2211.638469997239891%22%20y%3D%225.1035442412258725%22%20width%3D%2217.579354126414565%22%20height%3D%2217.39495798319327%22%20as%3D%22geometry%22%2F%3E%3C%2FmxCell%3E%3C%2Froot%3E%3C%2FmxGraphModel%3E&lt;/span&gt;" style="rounded=1;arcSize=10;whiteSpace=wrap;html=1;align=center;fillColor=default;fontColor=default;strokeColor=default;shape=ellipse;perimeter=ellipsePerimeter;verticalAlign=middle;fontFamily=Helvetica;fontSize=12;container=0;movable=1;resizable=1;rotatable=1;deletable=1;editable=1;locked=0;connectable=1;" vertex="1" parent="SGKCxWPsG8HPYs7f4zCw-53">
          <mxGeometry width="40.14" height="35" as="geometry" />
        </mxCell>
        <mxCell id="SGKCxWPsG8HPYs7f4zCw-51" value="" style="ellipse;whiteSpace=wrap;html=1;aspect=fixed;fillColor=none;movable=1;resizable=1;rotatable=1;deletable=1;editable=1;locked=0;connectable=1;fontSize=12;strokeWidth=0.5;container=0;" vertex="1" parent="SGKCxWPsG8HPYs7f4zCw-53">
          <mxGeometry x="12.340000000000146" y="12.5" width="10.000000000000025" height="10.000000000000025" as="geometry" />
        </mxCell>
        <mxCell id="SGKCxWPsG8HPYs7f4zCw-52" value="" style="ellipse;whiteSpace=wrap;html=1;aspect=fixed;fillColor=none;movable=1;resizable=1;rotatable=1;deletable=1;editable=1;locked=0;connectable=1;strokeWidth=0.5;container=0;" vertex="1" parent="SGKCxWPsG8HPYs7f4zCw-53">
          <mxGeometry x="17.656194248333122" y="12.5" width="10.000000000000025" height="10.000000000000025" as="geometry" />
        </mxCell>
        <mxCell id="SGKCxWPsG8HPYs7f4zCw-55" style="edgeStyle=orthogonalEdgeStyle;rounded=0;orthogonalLoop=1;jettySize=auto;html=1;dashed=1;strokeColor=default;align=center;verticalAlign=middle;fontFamily=Helvetica;fontSize=11;fontColor=default;labelBackgroundColor=default;endArrow=none;endFill=0;sourcePerimeterSpacing=6;targetPerimeterSpacing=6;startArrow=diamond;startFill=0;" edge="1" parent="1" source="SGKCxWPsG8HPYs7f4zCw-50" target="WCmOqJApZtAGnSyVygM3-289">
          <mxGeometry relative="1" as="geometry" />
        </mxCell>
        <mxCell id="SGKCxWPsG8HPYs7f4zCw-56" style="edgeStyle=orthogonalEdgeStyle;rounded=0;orthogonalLoop=1;jettySize=auto;html=1;dashed=1;strokeColor=default;align=center;verticalAlign=middle;fontFamily=Helvetica;fontSize=11;fontColor=default;labelBackgroundColor=default;endArrow=none;endFill=0;sourcePerimeterSpacing=6;targetPerimeterSpacing=6;startArrow=diamond;startFill=0;" edge="1" parent="1" source="SGKCxWPsG8HPYs7f4zCw-50" target="WCmOqJApZtAGnSyVygM3-290">
          <mxGeometry relative="1" as="geometry">
            <Array as="points">
              <mxPoint x="1000" y="1970" />
              <mxPoint x="1000" y="1865" />
            </Array>
          </mxGeometry>
        </mxCell>
      </root>
    </mxGraphModel>
  </diagram>
</mxfile>
